<svg xmlns="http://www.w3.org/2000/svg" viewBox="0 0 1200 850" width="1200" height="850">
  <defs>
  <marker id="dim-arrow" viewBox="0 0 10 6" refX="10" refY="3"
          markerWidth="8" markerHeight="6" orient="auto-start-reverse">
    <path d="M0,0 L10,3 L0,6 Z" fill="#000"/>
  </marker>
</defs>
  <rect width="1200" height="850" fill="white"/>
  <rect x="4.0" y="4.0" width="1192.0" height="842.0" fill="none" stroke="#000000" stroke-width="2.0"/>
  <rect x="8.0" y="8.0" width="1184.0" height="834.0" fill="none" stroke="#000000" stroke-width="0.5"/>
  <rect x="18.0" y="18.0" width="570.0" height="395.0" fill="none" stroke="#666666" stroke-width="0.5"/>
  <text x="303.0" y="32.0" text-anchor="middle" font-family="Arial, Helvetica, sans-serif" font-size="10" fill="#000000" font-weight="bold">PLAN VIEW</text>
  <g transform="translate(18,38)">
  <rect x="101.7" y="146.9" width="366.6" height="48.9" fill="none" stroke="#000000" stroke-width="2.5"/>
  <rect x="101.7" y="195.8" width="366.6" height="12.2" fill="#F0F0F0" stroke="#000000" stroke-width="2.5"/>
  <line x1="162.8" y1="197.8" x2="162.8" y2="206.0" stroke="#CCCCCC" stroke-width="0.3"/>
  <line x1="223.9" y1="197.8" x2="223.9" y2="206.0" stroke="#CCCCCC" stroke-width="0.3"/>
  <line x1="285.0" y1="197.8" x2="285.0" y2="206.0" stroke="#CCCCCC" stroke-width="0.3"/>
  <line x1="346.1" y1="197.8" x2="346.1" y2="206.0" stroke="#CCCCCC" stroke-width="0.3"/>
  <line x1="407.2" y1="197.8" x2="407.2" y2="206.0" stroke="#CCCCCC" stroke-width="0.3"/>
  <line x1="175.0" y1="148.9" x2="175.0" y2="193.8" stroke="#666666" stroke-width="1.0"/>
  <line x1="248.3" y1="148.9" x2="248.3" y2="193.8" stroke="#666666" stroke-width="1.0"/>
  <line x1="321.7" y1="148.9" x2="321.7" y2="193.8" stroke="#666666" stroke-width="1.0"/>
  <line x1="395.0" y1="148.9" x2="395.0" y2="193.8" stroke="#666666" stroke-width="1.0"/>
  <circle cx="138.4" cy="171.4" r="7.7" fill="white" stroke="#000000" stroke-width="0.75"/>
  <text x="138.4" y="175.2" text-anchor="middle" font-family="Arial, Helvetica, sans-serif" font-size="11" fill="#000000" font-weight="bold">C1</text>
  <circle cx="211.7" cy="171.4" r="7.7" fill="white" stroke="#000000" stroke-width="0.75"/>
  <text x="211.7" y="175.2" text-anchor="middle" font-family="Arial, Helvetica, sans-serif" font-size="11" fill="#000000" font-weight="bold">C2</text>
  <circle cx="285.0" cy="171.4" r="7.7" fill="white" stroke="#000000" stroke-width="0.75"/>
  <text x="285.0" y="175.2" text-anchor="middle" font-family="Arial, Helvetica, sans-serif" font-size="11" fill="#000000" font-weight="bold">C3</text>
  <circle cx="358.3" cy="171.4" r="7.7" fill="white" stroke="#000000" stroke-width="0.75"/>
  <text x="358.3" y="175.2" text-anchor="middle" font-family="Arial, Helvetica, sans-serif" font-size="11" fill="#000000" font-weight="bold">C4</text>
  <circle cx="431.6" cy="171.4" r="7.7" fill="white" stroke="#000000" stroke-width="0.75"/>
  <text x="431.6" y="175.2" text-anchor="middle" font-family="Arial, Helvetica, sans-serif" font-size="11" fill="#000000" font-weight="bold">C5</text>
  <text x="285.0" y="222.0" text-anchor="middle" font-family="Arial, Helvetica, sans-serif" font-size="7" fill="#666666" font-weight="600">CHANNELED BACK</text>
  <line x1="101.7" y1="231.0" x2="101.7" y2="251.0" stroke="#333333" stroke-width="0.5"/>
  <line x1="468.3" y1="231.0" x2="468.3" y2="251.0" stroke="#333333" stroke-width="0.5"/>
  <line x1="101.7" y1="246.0" x2="468.3" y2="246.0" stroke="#333333" stroke-width="0.75" marker-start="url(#dim-arrow)" marker-end="url(#dim-arrow)"/>
  <text x="285.0" y="258.0" text-anchor="middle" font-family="Arial, Helvetica, sans-serif" font-size="9" fill="#333333" font-weight="600">120&quot;</text>
  <line x1="98.7" y1="146.9" x2="74.7" y2="146.9" stroke="#333333" stroke-width="0.5"/>
  <line x1="98.7" y1="208.0" x2="74.7" y2="208.0" stroke="#333333" stroke-width="0.5"/>
  <line x1="79.7" y1="146.9" x2="79.7" y2="208.0" stroke="#333333" stroke-width="0.75" marker-start="url(#dim-arrow)" marker-end="url(#dim-arrow)"/>
  <text x="69.7" y="181.5" text-anchor="end" font-family="Arial, Helvetica, sans-serif" font-size="9" fill="#333333" font-weight="600">20&quot;</text>
  </g>
  <rect x="612.0" y="18.0" width="570.0" height="395.0" fill="none" stroke="#666666" stroke-width="0.5"/>
  <text x="897.0" y="32.0" text-anchor="middle" font-family="Arial, Helvetica, sans-serif" font-size="10" fill="#000000" font-weight="bold">ISOMETRIC VIEW</text>
  <g transform="translate(622,38)">
  <polygon points="150.4,340.0 449.4,167.4 449.4,115.6 150.4,288.2" fill="none" stroke="#000000" stroke-width="2.5" stroke-linejoin="round"/>
  <polygon points="150.4,288.2 449.4,115.6 409.6,92.5 110.5,265.2" fill="none" stroke="#000000" stroke-width="1.5" stroke-linejoin="round"/>
  <polygon points="449.4,167.4 409.6,144.3 409.6,92.5 449.4,115.6" fill="none" stroke="#000000" stroke-width="1.5" stroke-linejoin="round"/>
  <polygon points="110.5,265.2 409.6,92.5 409.6,40.8 110.5,213.4" fill="none" stroke="#000000" stroke-width="2.5" stroke-linejoin="round"/>
  <polygon points="110.5,213.4 409.6,40.8 399.6,35.0 100.6,207.6" fill="none" stroke="#000000" stroke-width="1.5" stroke-linejoin="round"/>
  <polygon points="409.6,92.5 399.6,86.8 399.6,35.0 409.6,40.8" fill="none" stroke="#000000" stroke-width="1.5" stroke-linejoin="round"/>
  <line x1="110.5" y1="265.2" x2="409.6" y2="92.5" stroke="#000000" stroke-width="1.0"/>
  <line x1="160.4" y1="233.5" x2="160.4" y2="187.5" stroke="#000000" stroke-width="0.3"/>
  <line x1="210.2" y1="204.8" x2="210.2" y2="158.7" stroke="#000000" stroke-width="0.3"/>
  <line x1="260.0" y1="176.0" x2="260.0" y2="130.0" stroke="#000000" stroke-width="0.3"/>
  <line x1="309.9" y1="147.2" x2="309.9" y2="101.2" stroke="#000000" stroke-width="0.3"/>
  <line x1="359.7" y1="118.4" x2="359.7" y2="72.4" stroke="#000000" stroke-width="0.3"/>
  <line x1="157.9" y1="364.6" x2="157.9" y2="388.6" stroke="#333333" stroke-width="0.5"/>
  <line x1="456.9" y1="191.9" x2="456.9" y2="215.9" stroke="#333333" stroke-width="0.5"/>
  <line x1="157.9" y1="383.6" x2="456.9" y2="210.9" stroke="#333333" stroke-width="0.75" marker-start="url(#dim-arrow)" marker-end="url(#dim-arrow)"/>
  <text x="307.4" y="309.3" text-anchor="middle" font-family="Arial, Helvetica, sans-serif" font-size="9" fill="#333333" font-weight="600">120&quot;</text>
  <line x1="417.5" y1="78.2" x2="437.5" y2="78.2" stroke="#333333" stroke-width="0.5"/>
  <line x1="417.5" y1="26.4" x2="437.5" y2="26.4" stroke="#333333" stroke-width="0.5"/>
  <line x1="432.5" y1="78.2" x2="432.5" y2="26.4" stroke="#333333" stroke-width="0.75" marker-start="url(#dim-arrow)" marker-end="url(#dim-arrow)"/>
  <text x="442.5" y="56.3" text-anchor="start" font-family="Arial, Helvetica, sans-serif" font-size="9" fill="#333333" font-weight="600">18&quot; BH</text>
  <line x1="509.7" y1="142.9" x2="529.7" y2="142.9" stroke="#333333" stroke-width="0.5"/>
  <line x1="509.7" y1="91.1" x2="529.7" y2="91.1" stroke="#333333" stroke-width="0.5"/>
  <line x1="524.7" y1="142.9" x2="524.7" y2="91.1" stroke="#333333" stroke-width="0.75" marker-start="url(#dim-arrow)" marker-end="url(#dim-arrow)"/>
  <text x="534.7" y="121.0" text-anchor="start" font-family="Arial, Helvetica, sans-serif" font-size="9" fill="#333333" font-weight="600">18&quot; SH</text>
  <line x1="459.4" y1="173.2" x2="459.4" y2="197.2" stroke="#333333" stroke-width="0.5"/>
  <line x1="409.6" y1="144.5" x2="409.6" y2="168.5" stroke="#333333" stroke-width="0.5"/>
  <line x1="459.4" y1="192.2" x2="409.6" y2="163.5" stroke="#333333" stroke-width="0.75" marker-start="url(#dim-arrow)" marker-end="url(#dim-arrow)"/>
  <text x="434.5" y="189.8" text-anchor="middle" font-family="Arial, Helvetica, sans-serif" font-size="9" fill="#333333" font-weight="600">20&quot;</text>
  </g>
  <rect x="18.0" y="437.0" width="570.0" height="395.0" fill="none" stroke="#666666" stroke-width="0.5"/>
  <text x="303.0" y="451.0" text-anchor="middle" font-family="Arial, Helvetica, sans-serif" font-size="10" fill="#000000" font-weight="bold">FRONT ELEVATION</text>
  <g transform="translate(18,457)">
  <line x1="86.7" y1="232.5" x2="483.3" y2="232.5" stroke="#666666" stroke-width="1.0" stroke-dasharray="6,3"/>
  <text x="83.7" y="236.5" text-anchor="end" font-family="Arial, Helvetica, sans-serif" font-size="7" fill="#666666" font-weight="normal">FL</text>
  <rect x="101.7" y="177.5" width="366.6" height="55.0" fill="none" stroke="#000000" stroke-width="2.5"/>
  <rect x="101.7" y="122.5" width="366.6" height="55.0" fill="none" stroke="#000000" stroke-width="1.5"/>
  <line x1="162.8" y1="124.5" x2="162.8" y2="175.5" stroke="#CCCCCC" stroke-width="0.3"/>
  <line x1="223.9" y1="124.5" x2="223.9" y2="175.5" stroke="#CCCCCC" stroke-width="0.3"/>
  <line x1="285.0" y1="124.5" x2="285.0" y2="175.5" stroke="#CCCCCC" stroke-width="0.3"/>
  <line x1="346.1" y1="124.5" x2="346.1" y2="175.5" stroke="#CCCCCC" stroke-width="0.3"/>
  <line x1="407.2" y1="124.5" x2="407.2" y2="175.5" stroke="#CCCCCC" stroke-width="0.3"/>
  <line x1="101.7" y1="177.5" x2="468.3" y2="177.5" stroke="#000000" stroke-width="1.5"/>
  <line x1="101.7" y1="235.5" x2="101.7" y2="255.5" stroke="#333333" stroke-width="0.5"/>
  <line x1="468.3" y1="235.5" x2="468.3" y2="255.5" stroke="#333333" stroke-width="0.5"/>
  <line x1="101.7" y1="250.5" x2="468.3" y2="250.5" stroke="#333333" stroke-width="0.75" marker-start="url(#dim-arrow)" marker-end="url(#dim-arrow)"/>
  <text x="285.0" y="262.5" text-anchor="middle" font-family="Arial, Helvetica, sans-serif" font-size="9" fill="#333333" font-weight="600">120&quot;</text>
  <line x1="471.3" y1="232.5" x2="495.3" y2="232.5" stroke="#333333" stroke-width="0.5"/>
  <line x1="471.3" y1="177.5" x2="495.3" y2="177.5" stroke="#333333" stroke-width="0.5"/>
  <line x1="490.3" y1="232.5" x2="490.3" y2="177.5" stroke="#333333" stroke-width="0.75" marker-start="url(#dim-arrow)" marker-end="url(#dim-arrow)"/>
  <text x="500.3" y="209.0" text-anchor="start" font-family="Arial, Helvetica, sans-serif" font-size="9" fill="#333333" font-weight="600">18&quot; SH</text>
  <line x1="511.3" y1="177.5" x2="535.3" y2="177.5" stroke="#333333" stroke-width="0.5"/>
  <line x1="511.3" y1="122.5" x2="535.3" y2="122.5" stroke="#333333" stroke-width="0.5"/>
  <line x1="530.3" y1="177.5" x2="530.3" y2="122.5" stroke="#333333" stroke-width="0.75" marker-start="url(#dim-arrow)" marker-end="url(#dim-arrow)"/>
  <text x="540.3" y="154.0" text-anchor="start" font-family="Arial, Helvetica, sans-serif" font-size="9" fill="#333333" font-weight="600">18&quot; BH</text>
  <line x1="94.7" y1="232.5" x2="68.7" y2="232.5" stroke="#333333" stroke-width="0.5"/>
  <line x1="94.7" y1="122.5" x2="68.7" y2="122.5" stroke="#333333" stroke-width="0.5"/>
  <line x1="73.7" y1="232.5" x2="73.7" y2="122.5" stroke="#333333" stroke-width="0.75" marker-start="url(#dim-arrow)" marker-end="url(#dim-arrow)"/>
  <text x="63.7" y="181.5" text-anchor="end" font-family="Arial, Helvetica, sans-serif" font-size="9" fill="#333333" font-weight="600">36&quot;</text>
  </g>
  <rect x="612.0" y="437.0" width="570.0" height="395.0" fill="none" stroke="#000000" stroke-width="2.0"/>
  <rect x="615.0" y="440.0" width="564.0" height="389.0" fill="none" stroke="#000000" stroke-width="0.5"/>
  <text x="897.0" y="465.0" text-anchor="middle" font-family="Arial, Helvetica, sans-serif" font-size="20" fill="#000000" font-weight="bold">EMPIRE WORKROOM</text>
  <text x="897.0" y="481.0" text-anchor="middle" font-family="Arial, Helvetica, sans-serif" font-size="8" fill="#666666" font-weight="normal">CUSTOM UPHOLSTERY &amp; FABRICATION</text>
  <text x="897.0" y="493.0" text-anchor="middle" font-family="Arial, Helvetica, sans-serif" font-size="7" fill="#666666" font-weight="normal">5124 Frolich Ln, Hyattsville, MD 20781</text>
  <text x="897.0" y="503.0" text-anchor="middle" font-family="Arial, Helvetica, sans-serif" font-size="7" fill="#666666" font-weight="normal">(703) 213-6484 | workroom@empirebox.store</text>
  <line x1="627.0" y1="511.0" x2="1167.0" y2="511.0" stroke="#000000" stroke-width="0.5"/>
  <text x="627.0" y="527.0" text-anchor="start" font-family="Arial, Helvetica, sans-serif" font-size="8" fill="#000000" font-weight="bold">ITEM:</text>
  <text x="712.0" y="527.0" text-anchor="start" font-family="Arial, Helvetica, sans-serif" font-size="8" fill="#000000" font-weight="normal">TEST BENCH</text>
  <text x="627.0" y="545.0" text-anchor="start" font-family="Arial, Helvetica, sans-serif" font-size="8" fill="#000000" font-weight="bold">TYPE:</text>
  <text x="712.0" y="545.0" text-anchor="start" font-family="Arial, Helvetica, sans-serif" font-size="8" fill="#000000" font-weight="normal">STRAIGHT</text>
  <text x="627.0" y="563.0" text-anchor="start" font-family="Arial, Helvetica, sans-serif" font-size="8" fill="#000000" font-weight="bold">DIMENSIONS:</text>
  <text x="712.0" y="563.0" text-anchor="start" font-family="Arial, Helvetica, sans-serif" font-size="8" fill="#000000" font-weight="normal">120&quot; W × 20&quot; D × 18&quot; SH × 18&quot; BH</text>
  <text x="627.0" y="581.0" text-anchor="start" font-family="Arial, Helvetica, sans-serif" font-size="8" fill="#000000" font-weight="bold">CUSHIONS:</text>
  <text x="712.0" y="581.0" text-anchor="start" font-family="Arial, Helvetica, sans-serif" font-size="8" fill="#000000" font-weight="normal">5 @ 24&quot; each</text>
  <text x="627.0" y="599.0" text-anchor="start" font-family="Arial, Helvetica, sans-serif" font-size="8" fill="#000000" font-weight="bold">BACK STYLE:</text>
  <text x="712.0" y="599.0" text-anchor="start" font-family="Arial, Helvetica, sans-serif" font-size="8" fill="#000000" font-weight="normal">CHANNELED BACK</text>
  <text x="627.0" y="617.0" text-anchor="start" font-family="Arial, Helvetica, sans-serif" font-size="8" fill="#000000" font-weight="bold">DATE:</text>
  <text x="712.0" y="617.0" text-anchor="start" font-family="Arial, Helvetica, sans-serif" font-size="8" fill="#000000" font-weight="normal">04/03/2026</text>
  <text x="627.0" y="635.0" text-anchor="start" font-family="Arial, Helvetica, sans-serif" font-size="8" fill="#000000" font-weight="bold">DRAWN BY:</text>
  <text x="712.0" y="635.0" text-anchor="start" font-family="Arial, Helvetica, sans-serif" font-size="8" fill="#000000" font-weight="normal">MAX AI / Empire Workroom</text>
  <text x="897.0" y="784.0" text-anchor="middle" font-family="Arial, Helvetica, sans-serif" font-size="7" fill="#000000" font-weight="bold">SCALE REFERENCE</text>
  <rect x="637.0" y="790.0" width="130.0" height="7.0" fill="#000" stroke="#000000" stroke-width="0.5"/>
  <rect x="767.0" y="790.0" width="130.0" height="7.0" fill="#FFF" stroke="#000000" stroke-width="0.5"/>
  <rect x="897.0" y="790.0" width="130.0" height="7.0" fill="#000" stroke="#000000" stroke-width="0.5"/>
  <rect x="1027.0" y="790.0" width="130.0" height="7.0" fill="#FFF" stroke="#000000" stroke-width="0.5"/>
  <text x="637.0" y="807.0" text-anchor="middle" font-family="Arial, Helvetica, sans-serif" font-size="6" fill="#000000" font-weight="normal">0&quot;</text>
  <text x="767.0" y="807.0" text-anchor="middle" font-family="Arial, Helvetica, sans-serif" font-size="6" fill="#000000" font-weight="normal">12&quot;</text>
  <text x="897.0" y="807.0" text-anchor="middle" font-family="Arial, Helvetica, sans-serif" font-size="6" fill="#000000" font-weight="normal">24&quot;</text>
  <text x="1027.0" y="807.0" text-anchor="middle" font-family="Arial, Helvetica, sans-serif" font-size="6" fill="#000000" font-weight="normal">36&quot;</text>
  <text x="1157.0" y="807.0" text-anchor="middle" font-family="Arial, Helvetica, sans-serif" font-size="6" fill="#000000" font-weight="normal">48&quot;</text>
</svg>