<svg xmlns="http://www.w3.org/2000/svg" viewBox="0 0 850 1100" width="850" height="1100">
  <defs>
  <marker id="dim-arrow" viewBox="0 0 10 6" refX="10" refY="3"
          markerWidth="8" markerHeight="6" orient="auto-start-reverse">
    <path d="M0,0 L10,3 L0,6 Z" fill="#000"/>
  </marker>
</defs>
  <rect width="850" height="1100" fill="white"/>
  <rect x="6.0" y="6.0" width="838.0" height="1088.0" fill="none" stroke="#000000" stroke-width="2.0"/>
  <rect x="10.0" y="10.0" width="830.0" height="1080.0" fill="none" stroke="#000000" stroke-width="0.5"/>
  <text x="425.0" y="44.0" text-anchor="middle" font-family="Arial, Helvetica, sans-serif" font-size="10" fill="#000000" font-weight="bold">FRONT VIEW</text>
  <rect x="201.0" y="40.0" width="448.0" height="520.0" fill="none" stroke="#000000" stroke-width="2.5"/>
  <rect x="209.0" y="48.0" width="432.0" height="504.0" fill="none" stroke="#000000" stroke-width="1.5"/>
  <rect x="211.0" y="50.0" width="213.0" height="500.0" fill="#f0f5fa" stroke="#000000" stroke-width="0.4"/>
  <rect x="426.0" y="50.0" width="213.0" height="500.0" fill="#f0f5fa" stroke="#000000" stroke-width="0.4"/>
  <line x1="209.0" y1="26.0" x2="641.0" y2="26.0" stroke="#000000" stroke-width="3"/>
  <circle cx="205.0" cy="26.0" r="4" fill="none" stroke="black" stroke-width="1.5"/>
  <circle cx="645.0" cy="26.0" r="4" fill="none" stroke="black" stroke-width="1.5"/>
  <line x1="216.2" y1="30.0" x2="216.2" y2="562.0" stroke="#CCCCCC" stroke-width="0.4"/>
  <line x1="230.6" y1="30.0" x2="230.6" y2="562.0" stroke="#CCCCCC" stroke-width="0.4"/>
  <line x1="245.0" y1="30.0" x2="245.0" y2="562.0" stroke="#CCCCCC" stroke-width="0.4"/>
  <line x1="259.4" y1="30.0" x2="259.4" y2="562.0" stroke="#CCCCCC" stroke-width="0.4"/>
  <line x1="273.8" y1="30.0" x2="273.8" y2="562.0" stroke="#CCCCCC" stroke-width="0.4"/>
  <line x1="288.2" y1="30.0" x2="288.2" y2="562.0" stroke="#CCCCCC" stroke-width="0.4"/>
  <line x1="302.6" y1="30.0" x2="302.6" y2="562.0" stroke="#CCCCCC" stroke-width="0.4"/>
  <line x1="317.0" y1="30.0" x2="317.0" y2="562.0" stroke="#CCCCCC" stroke-width="0.4"/>
  <line x1="331.4" y1="30.0" x2="331.4" y2="562.0" stroke="#CCCCCC" stroke-width="0.4"/>
  <line x1="345.8" y1="30.0" x2="345.8" y2="562.0" stroke="#CCCCCC" stroke-width="0.4"/>
  <line x1="360.2" y1="30.0" x2="360.2" y2="562.0" stroke="#CCCCCC" stroke-width="0.4"/>
  <line x1="374.6" y1="30.0" x2="374.6" y2="562.0" stroke="#CCCCCC" stroke-width="0.4"/>
  <line x1="389.0" y1="30.0" x2="389.0" y2="562.0" stroke="#CCCCCC" stroke-width="0.4"/>
  <line x1="403.4" y1="30.0" x2="403.4" y2="562.0" stroke="#CCCCCC" stroke-width="0.4"/>
  <line x1="417.8" y1="30.0" x2="417.8" y2="562.0" stroke="#CCCCCC" stroke-width="0.4"/>
  <line x1="432.2" y1="30.0" x2="432.2" y2="562.0" stroke="#CCCCCC" stroke-width="0.4"/>
  <line x1="446.6" y1="30.0" x2="446.6" y2="562.0" stroke="#CCCCCC" stroke-width="0.4"/>
  <line x1="461.0" y1="30.0" x2="461.0" y2="562.0" stroke="#CCCCCC" stroke-width="0.4"/>
  <line x1="475.4" y1="30.0" x2="475.4" y2="562.0" stroke="#CCCCCC" stroke-width="0.4"/>
  <line x1="489.8" y1="30.0" x2="489.8" y2="562.0" stroke="#CCCCCC" stroke-width="0.4"/>
  <line x1="504.2" y1="30.0" x2="504.2" y2="562.0" stroke="#CCCCCC" stroke-width="0.4"/>
  <line x1="518.6" y1="30.0" x2="518.6" y2="562.0" stroke="#CCCCCC" stroke-width="0.4"/>
  <line x1="533.0" y1="30.0" x2="533.0" y2="562.0" stroke="#CCCCCC" stroke-width="0.4"/>
  <line x1="547.4" y1="30.0" x2="547.4" y2="562.0" stroke="#CCCCCC" stroke-width="0.4"/>
  <line x1="561.8" y1="30.0" x2="561.8" y2="562.0" stroke="#CCCCCC" stroke-width="0.4"/>
  <line x1="576.2" y1="30.0" x2="576.2" y2="562.0" stroke="#CCCCCC" stroke-width="0.4"/>
  <line x1="590.6" y1="30.0" x2="590.6" y2="562.0" stroke="#CCCCCC" stroke-width="0.4"/>
  <line x1="605.0" y1="30.0" x2="605.0" y2="562.0" stroke="#CCCCCC" stroke-width="0.4"/>
  <line x1="619.4" y1="30.0" x2="619.4" y2="562.0" stroke="#CCCCCC" stroke-width="0.4"/>
  <line x1="633.8" y1="30.0" x2="633.8" y2="562.0" stroke="#CCCCCC" stroke-width="0.4"/>
  <rect x="207.0" y="30.0" width="64.8" height="530.0" fill="#f5f0eb" stroke="#000000" stroke-width="1.5"/>
  <rect x="578.2" y="30.0" width="64.8" height="530.0" fill="#f5f0eb" stroke="#000000" stroke-width="1.5"/>
  <text x="425.0" y="300.0" text-anchor="middle" font-family="Arial, Helvetica, sans-serif" font-size="10" fill="#666666" font-weight="normal">DRAPERY</text>
  <rect x="193.0" y="560.0" width="464.0" height="6.0" fill="#e8e4dc" stroke="#000000" stroke-width="1.5"/>
  <line x1="209.0" y1="569.0" x2="209.0" y2="593.0" stroke="#000000" stroke-width="0.5"/>
  <line x1="641.0" y1="569.0" x2="641.0" y2="593.0" stroke="#000000" stroke-width="0.5"/>
  <line x1="209.0" y1="588.0" x2="641.0" y2="588.0" stroke="#000000" stroke-width="0.75" marker-start="url(#dim-arrow)" marker-end="url(#dim-arrow)"/>
  <text x="425.0" y="600.0" text-anchor="middle" font-family="Arial, Helvetica, sans-serif" font-size="9" fill="#000000" font-weight="600">72"</text>
  <line x1="652.0" y1="48.0" x2="684.0" y2="48.0" stroke="#000000" stroke-width="0.5"/>
  <line x1="652.0" y1="552.0" x2="684.0" y2="552.0" stroke="#000000" stroke-width="0.5"/>
  <line x1="679.0" y1="48.0" x2="679.0" y2="552.0" stroke="#000000" stroke-width="0.75" marker-start="url(#dim-arrow)" marker-end="url(#dim-arrow)"/>
  <text x="687.0" y="303.0" text-anchor="middle" font-family="Arial, Helvetica, sans-serif" font-size="9" fill="#000000" font-weight="600" transform="rotate(-90,687.0,303.0)">84"</text>
  <text x="425.0" y="610.0" text-anchor="middle" font-family="Arial, Helvetica, sans-serif" font-size="9" fill="#666666" font-weight="normal">MOUNT: INSIDE</text>
  <text x="425.0" y="626.0" text-anchor="middle" font-family="Arial, Helvetica, sans-serif" font-size="9" fill="#666666" font-weight="normal">STACK: SPLIT</text>
  <text x="425.0" y="890.0" text-anchor="middle" font-family="Arial, Helvetica, sans-serif" font-size="10" fill="#666666" font-weight="normal">Window with drapery panels</text>
  <rect x="265.0" y="930.0" width="320.0" height="130.0" fill="none" stroke="#000000" stroke-width="1.5"/>
  <text x="425.0" y="948.0" text-anchor="middle" font-family="Arial, Helvetica, sans-serif" font-size="14" fill="#000000" font-weight="bold">EMPIRE WORKROOM</text>
  <text x="425.0" y="962.0" text-anchor="middle" font-family="Arial, Helvetica, sans-serif" font-size="8" fill="#666666" font-weight="normal">Custom Upholstery &amp; Window Treatments</text>
  <line x1="275.0" y1="970.0" x2="575.0" y2="970.0" stroke="#000000" stroke-width="0.5"/>
  <text x="425.0" y="984.0" text-anchor="middle" font-family="Arial, Helvetica, sans-serif" font-size="11" fill="#000000" font-weight="bold">WINDOW WITH DRAPERY PANELS</text>
  <text x="425.0" y="998.0" text-anchor="middle" font-family="Arial, Helvetica, sans-serif" font-size="8" fill="#666666" font-weight="normal">WINDOW TREATMENT</text>
  <text x="425.0" y="1052.0" text-anchor="middle" font-family="Arial, Helvetica, sans-serif" font-size="7" fill="#666666" font-weight="normal">5124 Frolich Ln, Hyattsville, MD 20781</text>
</svg>