<svg xmlns="http://www.w3.org/2000/svg" viewBox="0 0 850 1100" width="850" height="1100">
  <defs>
  <marker id="dim-arrow" viewBox="0 0 10 6" refX="10" refY="3"
          markerWidth="8" markerHeight="6" orient="auto-start-reverse">
    <path d="M0,0 L10,3 L0,6 Z" fill="#000"/>
  </marker>
</defs>
  <rect width="850" height="1100" fill="white"/>
  <rect x="6.0" y="6.0" width="838.0" height="1088.0" fill="none" stroke="#000000" stroke-width="2.0"/>
  <rect x="10.0" y="10.0" width="830.0" height="1080.0" fill="none" stroke="#000000" stroke-width="0.5"/>
  <text x="425.0" y="44.0" text-anchor="middle" font-family="Arial, Helvetica, sans-serif" font-size="10" fill="#000000" font-weight="bold">FRONT VIEW</text>
  <rect x="92.0" y="129.5" width="666.0" height="341.0" fill="none" stroke="#000000" stroke-width="2.5"/>
  <rect x="100.0" y="137.5" width="650.0" height="325.0" fill="none" stroke="#000000" stroke-width="1.5"/>
  <rect x="102.0" y="139.5" width="322.0" height="321.0" fill="#f0f5fa" stroke="#000000" stroke-width="0.4"/>
  <rect x="426.0" y="139.5" width="322.0" height="321.0" fill="#f0f5fa" stroke="#000000" stroke-width="0.4"/>
  <text x="425.0" y="300.0" text-anchor="middle" font-family="Arial, Helvetica, sans-serif" font-size="10" fill="#666666" font-weight="normal">WINDOW TREATMENT</text>
  <rect x="84.0" y="470.5" width="682.0" height="6.0" fill="#e8e4dc" stroke="#000000" stroke-width="1.5"/>
  <line x1="100.0" y1="479.5" x2="100.0" y2="503.5" stroke="#000000" stroke-width="0.5"/>
  <line x1="750.0" y1="479.5" x2="750.0" y2="503.5" stroke="#000000" stroke-width="0.5"/>
  <line x1="100.0" y1="498.5" x2="750.0" y2="498.5" stroke="#000000" stroke-width="0.75" marker-start="url(#dim-arrow)" marker-end="url(#dim-arrow)"/>
  <text x="425.0" y="510.5" text-anchor="middle" font-family="Arial, Helvetica, sans-serif" font-size="9" fill="#000000" font-weight="600">120"</text>
  <line x1="761.0" y1="137.5" x2="793.0" y2="137.5" stroke="#000000" stroke-width="0.5"/>
  <line x1="761.0" y1="462.5" x2="793.0" y2="462.5" stroke="#000000" stroke-width="0.5"/>
  <line x1="788.0" y1="137.5" x2="788.0" y2="462.5" stroke="#000000" stroke-width="0.75" marker-start="url(#dim-arrow)" marker-end="url(#dim-arrow)"/>
  <text x="796.0" y="303.0" text-anchor="middle" font-family="Arial, Helvetica, sans-serif" font-size="9" fill="#000000" font-weight="600" transform="rotate(-90,796.0,303.0)">60"</text>
  <text x="425.0" y="520.5" text-anchor="middle" font-family="Arial, Helvetica, sans-serif" font-size="9" fill="#666666" font-weight="normal">MOUNT: INSIDE</text>
  <rect x="265.0" y="930.0" width="320.0" height="130.0" fill="none" stroke="#000000" stroke-width="1.5"/>
  <text x="425.0" y="948.0" text-anchor="middle" font-family="Arial, Helvetica, sans-serif" font-size="14" fill="#000000" font-weight="bold">EMPIRE WORKROOM</text>
  <text x="425.0" y="962.0" text-anchor="middle" font-family="Arial, Helvetica, sans-serif" font-size="8" fill="#666666" font-weight="normal">Custom Upholstery &amp; Window Treatments</text>
  <line x1="275.0" y1="970.0" x2="575.0" y2="970.0" stroke="#000000" stroke-width="0.5"/>
  <text x="425.0" y="984.0" text-anchor="middle" font-family="Arial, Helvetica, sans-serif" font-size="11" fill="#000000" font-weight="bold">CENTRAL WINDOW GROUP</text>
  <text x="425.0" y="998.0" text-anchor="middle" font-family="Arial, Helvetica, sans-serif" font-size="8" fill="#666666" font-weight="normal">WINDOW TREATMENT</text>
  <text x="425.0" y="1052.0" text-anchor="middle" font-family="Arial, Helvetica, sans-serif" font-size="7" fill="#666666" font-weight="normal">5124 Frolich Ln, Hyattsville, MD 20781</text>
</svg>