<svg xmlns="http://www.w3.org/2000/svg" viewBox="0 0 1200 850" width="1200" height="850">
  <defs>
  <marker id="dim-arrow" viewBox="0 0 10 6" refX="10" refY="3"
          markerWidth="8" markerHeight="6" orient="auto-start-reverse">
    <path d="M0,0 L10,3 L0,6 Z" fill="#000"/>
  </marker>
</defs>
  <rect width="1200" height="850" fill="white"/>
  <rect x="4.0" y="4.0" width="1192.0" height="842.0" fill="none" stroke="#000000" stroke-width="2.0"/>
  <rect x="8.0" y="8.0" width="1184.0" height="834.0" fill="none" stroke="#000000" stroke-width="0.5"/>
  <rect x="18.0" y="18.0" width="570.0" height="395.0" fill="none" stroke="#666666" stroke-width="0.5"/>
  <text x="303.0" y="32.0" text-anchor="middle" font-family="Arial, Helvetica, sans-serif" font-size="10" fill="#000000" font-weight="bold">PLAN VIEW</text>
  <g transform="translate(18,38)">
  <rect x="101.7" y="85.8" width="366.6" height="42.8" fill="none" stroke="#000000" stroke-width="2.5"/>
  <rect x="101.7" y="128.6" width="366.6" height="12.2" fill="#F0F0F0" stroke="#000000" stroke-width="2.5"/>
  <line x1="162.8" y1="130.6" x2="162.8" y2="138.8" stroke="#CCCCCC" stroke-width="0.3"/>
  <line x1="223.9" y1="130.6" x2="223.9" y2="138.8" stroke="#CCCCCC" stroke-width="0.3"/>
  <line x1="285.0" y1="130.6" x2="285.0" y2="138.8" stroke="#CCCCCC" stroke-width="0.3"/>
  <line x1="346.1" y1="130.6" x2="346.1" y2="138.8" stroke="#CCCCCC" stroke-width="0.3"/>
  <line x1="407.2" y1="130.6" x2="407.2" y2="138.8" stroke="#CCCCCC" stroke-width="0.3"/>
  <rect x="425.5" y="140.8" width="42.8" height="128.3" fill="none" stroke="#000000" stroke-width="2.5"/>
  <rect x="468.3" y="140.8" width="12.2" height="128.3" fill="#F0F0F0" stroke="#000000" stroke-width="2.5"/>
  <line x1="417.0" y1="132.4" x2="434.0" y2="149.3" stroke="#000000" stroke-width="0.75"/>
  <text x="438.0" y="128.4" text-anchor="start" font-family="Arial, Helvetica, sans-serif" font-size="7" fill="#666666" font-weight="600">MITER</text>
  <circle cx="138.4" cy="107.2" r="7.7" fill="white" stroke="#000000" stroke-width="0.75"/>
  <text x="138.4" y="111.1" text-anchor="middle" font-family="Arial, Helvetica, sans-serif" font-size="11" fill="#000000" font-weight="bold">C1</text>
  <circle cx="211.7" cy="107.2" r="7.7" fill="white" stroke="#000000" stroke-width="0.75"/>
  <text x="211.7" y="111.1" text-anchor="middle" font-family="Arial, Helvetica, sans-serif" font-size="11" fill="#000000" font-weight="bold">C2</text>
  <circle cx="285.0" cy="107.2" r="7.7" fill="white" stroke="#000000" stroke-width="0.75"/>
  <text x="285.0" y="111.1" text-anchor="middle" font-family="Arial, Helvetica, sans-serif" font-size="11" fill="#000000" font-weight="bold">C3</text>
  <circle cx="358.3" cy="107.2" r="7.7" fill="white" stroke="#000000" stroke-width="0.75"/>
  <text x="358.3" y="111.1" text-anchor="middle" font-family="Arial, Helvetica, sans-serif" font-size="11" fill="#000000" font-weight="bold">C4</text>
  <circle cx="431.6" cy="107.2" r="7.7" fill="white" stroke="#000000" stroke-width="0.75"/>
  <text x="431.6" y="111.1" text-anchor="middle" font-family="Arial, Helvetica, sans-serif" font-size="11" fill="#000000" font-weight="bold">C5</text>
  <circle cx="446.9" cy="205.0" r="7.7" fill="white" stroke="#000000" stroke-width="0.75"/>
  <text x="446.9" y="208.8" text-anchor="middle" font-family="Arial, Helvetica, sans-serif" font-size="11" fill="#000000" font-weight="bold">C6</text>
  <line x1="101.7" y1="78.8" x2="101.7" y2="58.8" stroke="#333333" stroke-width="0.5"/>
  <line x1="468.3" y1="78.8" x2="468.3" y2="58.8" stroke="#333333" stroke-width="0.5"/>
  <line x1="101.7" y1="63.8" x2="468.3" y2="63.8" stroke="#333333" stroke-width="0.75" marker-start="url(#dim-arrow)" marker-end="url(#dim-arrow)"/>
  <text x="285.0" y="59.8" text-anchor="middle" font-family="Arial, Helvetica, sans-serif" font-size="9" fill="#333333" font-weight="600">120&quot;</text>
  <line x1="487.5" y1="85.8" x2="507.5" y2="85.8" stroke="#333333" stroke-width="0.5"/>
  <line x1="487.5" y1="269.1" x2="507.5" y2="269.1" stroke="#333333" stroke-width="0.5"/>
  <line x1="502.5" y1="85.8" x2="502.5" y2="269.1" stroke="#333333" stroke-width="0.75" marker-start="url(#dim-arrow)" marker-end="url(#dim-arrow)"/>
  <text x="512.5" y="181.5" text-anchor="start" font-family="Arial, Helvetica, sans-serif" font-size="9" fill="#333333" font-weight="600">60&quot;</text>
  <line x1="94.7" y1="85.8" x2="74.7" y2="85.8" stroke="#333333" stroke-width="0.5"/>
  <line x1="94.7" y1="140.8" x2="74.7" y2="140.8" stroke="#333333" stroke-width="0.5"/>
  <line x1="79.7" y1="85.8" x2="79.7" y2="140.8" stroke="#333333" stroke-width="0.75" marker-start="url(#dim-arrow)" marker-end="url(#dim-arrow)"/>
  <text x="69.7" y="117.3" text-anchor="end" font-family="Arial, Helvetica, sans-serif" font-size="9" fill="#333333" font-weight="600">18&quot;</text>
  </g>
  <rect x="612.0" y="18.0" width="570.0" height="395.0" fill="none" stroke="#666666" stroke-width="0.5"/>
  <text x="897.0" y="32.0" text-anchor="middle" font-family="Arial, Helvetica, sans-serif" font-size="10" fill="#000000" font-weight="bold">ISOMETRIC VIEW</text>
  <g transform="translate(622,38)">
  <polygon points="141.1,294.9 364.3,166.0 364.3,127.4 141.1,256.2" fill="none" stroke="#000000" stroke-width="2.5" stroke-linejoin="round"/>
  <polygon points="141.1,256.2 364.3,127.4 338.2,112.3 115.0,241.2" fill="none" stroke="#000000" stroke-width="1.5" stroke-linejoin="round"/>
  <polygon points="364.3,166.0 338.2,151.0 338.2,112.3 364.3,127.4" fill="none" stroke="#000000" stroke-width="1.5" stroke-linejoin="round"/>
  <polygon points="115.0,241.2 338.2,112.3 338.2,39.3 115.0,168.2" fill="none" stroke="#000000" stroke-width="2.5" stroke-linejoin="round"/>
  <polygon points="115.0,168.2 338.2,39.3 330.8,35.0 107.6,163.9" fill="none" stroke="#000000" stroke-width="1.5" stroke-linejoin="round"/>
  <polygon points="338.2,112.3 330.8,108.0 330.8,35.0 338.2,39.3" fill="none" stroke="#000000" stroke-width="1.5" stroke-linejoin="round"/>
  <line x1="115.0" y1="241.2" x2="338.2" y2="112.3" stroke="#000000" stroke-width="1.0"/>
  <line x1="152.2" y1="217.6" x2="152.2" y2="148.8" stroke="#000000" stroke-width="0.3"/>
  <line x1="189.4" y1="196.1" x2="189.4" y2="127.4" stroke="#000000" stroke-width="0.3"/>
  <line x1="226.6" y1="174.6" x2="226.6" y2="105.9" stroke="#000000" stroke-width="0.3"/>
  <line x1="263.8" y1="153.1" x2="263.8" y2="84.4" stroke="#000000" stroke-width="0.3"/>
  <line x1="301.0" y1="131.7" x2="301.0" y2="62.9" stroke="#000000" stroke-width="0.3"/>
  <polygon points="408.9,230.5 442.4,211.1 442.4,172.5 408.9,191.8" fill="none" stroke="#000000" stroke-width="2.5" stroke-linejoin="round"/>
  <polygon points="408.9,191.8 442.4,172.5 338.2,112.3 304.8,131.7" fill="none" stroke="#000000" stroke-width="1.5" stroke-linejoin="round"/>
  <polygon points="442.4,211.1 338.2,151.0 338.2,112.3 442.4,172.5" fill="none" stroke="#000000" stroke-width="1.5" stroke-linejoin="round"/>
  <polygon points="304.8,131.7 338.2,112.3 338.2,39.3 304.8,58.6" fill="none" stroke="#000000" stroke-width="2.5" stroke-linejoin="round"/>
  <polygon points="304.8,58.6 338.2,39.3 330.8,35.0 297.3,54.3" fill="none" stroke="#000000" stroke-width="1.5" stroke-linejoin="round"/>
  <polygon points="338.2,112.3 330.8,108.0 330.8,35.0 338.2,39.3" fill="none" stroke="#000000" stroke-width="1.5" stroke-linejoin="round"/>
  <line x1="304.8" y1="131.7" x2="338.2" y2="112.3" stroke="#000000" stroke-width="1.0"/>
  <line x1="310.3" y1="126.3" x2="310.3" y2="57.6" stroke="#000000" stroke-width="0.3"/>
  <line x1="315.9" y1="123.1" x2="315.9" y2="54.3" stroke="#000000" stroke-width="0.3"/>
  <line x1="321.5" y1="119.8" x2="321.5" y2="51.1" stroke="#000000" stroke-width="0.3"/>
  <line x1="327.1" y1="116.6" x2="327.1" y2="47.9" stroke="#000000" stroke-width="0.3"/>
  <line x1="332.7" y1="113.4" x2="332.7" y2="44.7" stroke="#000000" stroke-width="0.3"/>
  <line x1="146.7" y1="170.5" x2="146.7" y2="146.5" stroke="#333333" stroke-width="0.5"/>
  <line x1="369.9" y1="41.7" x2="369.9" y2="17.7" stroke="#333333" stroke-width="0.5"/>
  <line x1="146.7" y1="151.5" x2="369.9" y2="22.7" stroke="#333333" stroke-width="0.75" marker-start="url(#dim-arrow)" marker-end="url(#dim-arrow)"/>
  <text x="258.3" y="83.1" text-anchor="middle" font-family="Arial, Helvetica, sans-serif" font-size="9" fill="#333333" font-weight="600">120&quot;</text>
  <line x1="449.9" y1="216.3" x2="449.9" y2="240.3" stroke="#333333" stroke-width="0.5"/>
  <line x1="338.2" y1="151.8" x2="338.2" y2="175.8" stroke="#333333" stroke-width="0.5"/>
  <line x1="449.9" y1="235.3" x2="338.2" y2="170.8" stroke="#333333" stroke-width="0.75" marker-start="url(#dim-arrow)" marker-end="url(#dim-arrow)"/>
  <text x="394.0" y="215.1" text-anchor="middle" font-family="Arial, Helvetica, sans-serif" font-size="9" fill="#333333" font-weight="600">60&quot;</text>
  <line x1="401.5" y1="154.0" x2="401.5" y2="178.0" stroke="#333333" stroke-width="0.5"/>
  <line x1="368.0" y1="134.7" x2="368.0" y2="158.7" stroke="#333333" stroke-width="0.5"/>
  <line x1="401.5" y1="173.0" x2="368.0" y2="153.7" stroke="#333333" stroke-width="0.75" marker-start="url(#dim-arrow)" marker-end="url(#dim-arrow)"/>
  <text x="384.7" y="175.3" text-anchor="middle" font-family="Arial, Helvetica, sans-serif" font-size="9" fill="#333333" font-weight="600">18&quot;</text>
  <line x1="462.2" y1="169.2" x2="482.2" y2="169.2" stroke="#333333" stroke-width="0.5"/>
  <line x1="462.2" y1="96.2" x2="482.2" y2="96.2" stroke="#333333" stroke-width="0.5"/>
  <line x1="477.2" y1="169.2" x2="477.2" y2="96.2" stroke="#333333" stroke-width="0.75" marker-start="url(#dim-arrow)" marker-end="url(#dim-arrow)"/>
  <text x="487.2" y="136.7" text-anchor="start" font-family="Arial, Helvetica, sans-serif" font-size="9" fill="#333333" font-weight="600">34&quot; BH</text>
  <line x1="350.5" y1="143.5" x2="370.5" y2="143.5" stroke="#333333" stroke-width="0.5"/>
  <line x1="350.5" y1="104.8" x2="370.5" y2="104.8" stroke="#333333" stroke-width="0.5"/>
  <line x1="365.5" y1="143.5" x2="365.5" y2="104.8" stroke="#333333" stroke-width="0.75" marker-start="url(#dim-arrow)" marker-end="url(#dim-arrow)"/>
  <text x="375.5" y="128.1" text-anchor="start" font-family="Arial, Helvetica, sans-serif" font-size="9" fill="#333333" font-weight="600">18&quot; SH</text>
  </g>
  <rect x="18.0" y="437.0" width="570.0" height="395.0" fill="none" stroke="#666666" stroke-width="0.5"/>
  <text x="303.0" y="451.0" text-anchor="middle" font-family="Arial, Helvetica, sans-serif" font-size="10" fill="#000000" font-weight="bold">FRONT ELEVATION</text>
  <g transform="translate(18,457)">
  <line x1="86.7" y1="256.9" x2="483.3" y2="256.9" stroke="#666666" stroke-width="1.0" stroke-dasharray="6,3"/>
  <text x="83.7" y="260.9" text-anchor="end" font-family="Arial, Helvetica, sans-serif" font-size="7" fill="#666666" font-weight="normal">FL</text>
  <rect x="101.7" y="201.9" width="366.6" height="55.0" fill="none" stroke="#000000" stroke-width="2.5"/>
  <rect x="101.7" y="98.1" width="366.6" height="103.9" fill="none" stroke="#000000" stroke-width="1.5"/>
  <line x1="162.8" y1="100.1" x2="162.8" y2="199.9" stroke="#CCCCCC" stroke-width="0.3"/>
  <line x1="223.9" y1="100.1" x2="223.9" y2="199.9" stroke="#CCCCCC" stroke-width="0.3"/>
  <line x1="285.0" y1="100.1" x2="285.0" y2="199.9" stroke="#CCCCCC" stroke-width="0.3"/>
  <line x1="346.1" y1="100.1" x2="346.1" y2="199.9" stroke="#CCCCCC" stroke-width="0.3"/>
  <line x1="407.2" y1="100.1" x2="407.2" y2="199.9" stroke="#CCCCCC" stroke-width="0.3"/>
  <line x1="101.7" y1="201.9" x2="468.3" y2="201.9" stroke="#000000" stroke-width="1.5"/>
  <line x1="101.7" y1="259.9" x2="101.7" y2="279.9" stroke="#333333" stroke-width="0.5"/>
  <line x1="468.3" y1="259.9" x2="468.3" y2="279.9" stroke="#333333" stroke-width="0.5"/>
  <line x1="101.7" y1="274.9" x2="468.3" y2="274.9" stroke="#333333" stroke-width="0.75" marker-start="url(#dim-arrow)" marker-end="url(#dim-arrow)"/>
  <text x="285.0" y="286.9" text-anchor="middle" font-family="Arial, Helvetica, sans-serif" font-size="9" fill="#333333" font-weight="600">120&quot;</text>
  <line x1="471.3" y1="256.9" x2="495.3" y2="256.9" stroke="#333333" stroke-width="0.5"/>
  <line x1="471.3" y1="201.9" x2="495.3" y2="201.9" stroke="#333333" stroke-width="0.5"/>
  <line x1="490.3" y1="256.9" x2="490.3" y2="201.9" stroke="#333333" stroke-width="0.75" marker-start="url(#dim-arrow)" marker-end="url(#dim-arrow)"/>
  <text x="500.3" y="233.4" text-anchor="start" font-family="Arial, Helvetica, sans-serif" font-size="9" fill="#333333" font-weight="600">18&quot; SH</text>
  <line x1="511.3" y1="201.9" x2="535.3" y2="201.9" stroke="#333333" stroke-width="0.5"/>
  <line x1="511.3" y1="98.1" x2="535.3" y2="98.1" stroke="#333333" stroke-width="0.5"/>
  <line x1="530.3" y1="201.9" x2="530.3" y2="98.1" stroke="#333333" stroke-width="0.75" marker-start="url(#dim-arrow)" marker-end="url(#dim-arrow)"/>
  <text x="540.3" y="154.0" text-anchor="start" font-family="Arial, Helvetica, sans-serif" font-size="9" fill="#333333" font-weight="600">34&quot; BH</text>
  <line x1="94.7" y1="256.9" x2="68.7" y2="256.9" stroke="#333333" stroke-width="0.5"/>
  <line x1="94.7" y1="98.1" x2="68.7" y2="98.1" stroke="#333333" stroke-width="0.5"/>
  <line x1="73.7" y1="256.9" x2="73.7" y2="98.1" stroke="#333333" stroke-width="0.75" marker-start="url(#dim-arrow)" marker-end="url(#dim-arrow)"/>
  <text x="63.7" y="181.5" text-anchor="end" font-family="Arial, Helvetica, sans-serif" font-size="9" fill="#333333" font-weight="600">52&quot;</text>
  </g>
  <rect x="612.0" y="437.0" width="570.0" height="395.0" fill="none" stroke="#000000" stroke-width="2.0"/>
  <rect x="615.0" y="440.0" width="564.0" height="389.0" fill="none" stroke="#000000" stroke-width="0.5"/>
  <text x="897.0" y="465.0" text-anchor="middle" font-family="Arial, Helvetica, sans-serif" font-size="20" fill="#000000" font-weight="bold">EMPIRE WORKROOM</text>
  <text x="897.0" y="481.0" text-anchor="middle" font-family="Arial, Helvetica, sans-serif" font-size="8" fill="#666666" font-weight="normal">CUSTOM UPHOLSTERY &amp; FABRICATION</text>
  <text x="897.0" y="493.0" text-anchor="middle" font-family="Arial, Helvetica, sans-serif" font-size="7" fill="#666666" font-weight="normal">5124 Frolich Ln, Hyattsville, MD 20781</text>
  <text x="897.0" y="503.0" text-anchor="middle" font-family="Arial, Helvetica, sans-serif" font-size="7" fill="#666666" font-weight="normal">(703) 213-6484 | workroom@empirebox.store</text>
  <line x1="627.0" y1="511.0" x2="1167.0" y2="511.0" stroke="#000000" stroke-width="0.5"/>
  <text x="627.0" y="527.0" text-anchor="start" font-family="Arial, Helvetica, sans-serif" font-size="8" fill="#000000" font-weight="bold">ITEM:</text>
  <text x="712.0" y="527.0" text-anchor="start" font-family="Arial, Helvetica, sans-serif" font-size="8" fill="#000000" font-weight="normal">KITCHEN BANQUETTE - CORNER L-SHAPE</text>
  <text x="627.0" y="545.0" text-anchor="start" font-family="Arial, Helvetica, sans-serif" font-size="8" fill="#000000" font-weight="bold">TYPE:</text>
  <text x="712.0" y="545.0" text-anchor="start" font-family="Arial, Helvetica, sans-serif" font-size="8" fill="#000000" font-weight="normal">L SHAPE</text>
  <text x="627.0" y="563.0" text-anchor="start" font-family="Arial, Helvetica, sans-serif" font-size="8" fill="#000000" font-weight="bold">DIMENSIONS:</text>
  <text x="712.0" y="563.0" text-anchor="start" font-family="Arial, Helvetica, sans-serif" font-size="8" fill="#000000" font-weight="normal">120&quot; L × 60&quot; S × 18&quot; D × 18&quot; SH × 34&quot; BH</text>
  <text x="627.0" y="581.0" text-anchor="start" font-family="Arial, Helvetica, sans-serif" font-size="8" fill="#000000" font-weight="bold">CUSHIONS:</text>
  <text x="712.0" y="581.0" text-anchor="start" font-family="Arial, Helvetica, sans-serif" font-size="8" fill="#000000" font-weight="normal">5 @ 24.0&quot; each</text>
  <text x="627.0" y="599.0" text-anchor="start" font-family="Arial, Helvetica, sans-serif" font-size="8" fill="#000000" font-weight="bold">BACK STYLE:</text>
  <text x="712.0" y="599.0" text-anchor="start" font-family="Arial, Helvetica, sans-serif" font-size="8" fill="#000000" font-weight="normal">CHANNELED BACK</text>
  <text x="627.0" y="617.0" text-anchor="start" font-family="Arial, Helvetica, sans-serif" font-size="8" fill="#000000" font-weight="bold">CLIENT:</text>
  <text x="712.0" y="617.0" text-anchor="start" font-family="Arial, Helvetica, sans-serif" font-size="8" fill="#000000" font-weight="normal">UNSPECIFIED</text>
  <text x="627.0" y="635.0" text-anchor="start" font-family="Arial, Helvetica, sans-serif" font-size="8" fill="#000000" font-weight="bold">PROJECT:</text>
  <text x="712.0" y="635.0" text-anchor="start" font-family="Arial, Helvetica, sans-serif" font-size="8" fill="#000000" font-weight="normal">KITCHEN RENOVATION</text>
  <text x="627.0" y="653.0" text-anchor="start" font-family="Arial, Helvetica, sans-serif" font-size="8" fill="#000000" font-weight="bold">DATE:</text>
  <text x="712.0" y="653.0" text-anchor="start" font-family="Arial, Helvetica, sans-serif" font-size="8" fill="#000000" font-weight="normal">04/04/2026</text>
  <text x="627.0" y="671.0" text-anchor="start" font-family="Arial, Helvetica, sans-serif" font-size="8" fill="#000000" font-weight="bold">DRAWN BY:</text>
  <text x="712.0" y="671.0" text-anchor="start" font-family="Arial, Helvetica, sans-serif" font-size="8" fill="#000000" font-weight="normal">MAX AI / Empire Workroom</text>
  <text x="897.0" y="784.0" text-anchor="middle" font-family="Arial, Helvetica, sans-serif" font-size="7" fill="#000000" font-weight="bold">SCALE REFERENCE</text>
  <rect x="637.0" y="790.0" width="130.0" height="7.0" fill="#000" stroke="#000000" stroke-width="0.5"/>
  <rect x="767.0" y="790.0" width="130.0" height="7.0" fill="#FFF" stroke="#000000" stroke-width="0.5"/>
  <rect x="897.0" y="790.0" width="130.0" height="7.0" fill="#000" stroke="#000000" stroke-width="0.5"/>
  <rect x="1027.0" y="790.0" width="130.0" height="7.0" fill="#FFF" stroke="#000000" stroke-width="0.5"/>
  <text x="637.0" y="807.0" text-anchor="middle" font-family="Arial, Helvetica, sans-serif" font-size="6" fill="#000000" font-weight="normal">0&quot;</text>
  <text x="767.0" y="807.0" text-anchor="middle" font-family="Arial, Helvetica, sans-serif" font-size="6" fill="#000000" font-weight="normal">12&quot;</text>
  <text x="897.0" y="807.0" text-anchor="middle" font-family="Arial, Helvetica, sans-serif" font-size="6" fill="#000000" font-weight="normal">24&quot;</text>
  <text x="1027.0" y="807.0" text-anchor="middle" font-family="Arial, Helvetica, sans-serif" font-size="6" fill="#000000" font-weight="normal">36&quot;</text>
  <text x="1157.0" y="807.0" text-anchor="middle" font-family="Arial, Helvetica, sans-serif" font-size="6" fill="#000000" font-weight="normal">48&quot;</text>
</svg>