<svg xmlns="http://www.w3.org/2000/svg" viewBox="0 0 1200 850" width="1200" height="850">
  <defs>
  <marker id="dim-arrow" viewBox="0 0 10 6" refX="10" refY="3"
          markerWidth="8" markerHeight="6" orient="auto-start-reverse">
    <path d="M0,0 L10,3 L0,6 Z" fill="#000"/>
  </marker>
</defs>
  <rect width="1200" height="850" fill="white"/>
  <rect x="4.0" y="4.0" width="1192.0" height="842.0" fill="none" stroke="#000000" stroke-width="2.0"/>
  <rect x="8.0" y="8.0" width="1184.0" height="834.0" fill="none" stroke="#000000" stroke-width="0.5"/>
  <rect x="18.0" y="18.0" width="570.0" height="395.0" fill="none" stroke="#666666" stroke-width="0.5"/>
  <text x="303.0" y="32.0" text-anchor="middle" font-family="Arial, Helvetica, sans-serif" font-size="10" fill="#000000" font-weight="bold">PLAN VIEW</text>
  <g transform="translate(18,38)">
  <rect x="101.7" y="85.8" width="23.8" height="183.3" fill="none" stroke="#000000" stroke-width="2.5"/>
  <rect x="94.9" y="85.8" width="6.8" height="183.3" fill="#F0F0F0" stroke="#000000" stroke-width="2.5"/>
  <rect x="132.2" y="238.6" width="305.5" height="23.8" fill="none" stroke="#000000" stroke-width="2.5"/>
  <rect x="132.2" y="262.4" width="305.5" height="6.8" fill="#F0F0F0" stroke="#000000" stroke-width="2.5"/>
  <line x1="183.2" y1="264.4" x2="183.2" y2="267.1" stroke="#CCCCCC" stroke-width="0.3"/>
  <line x1="234.1" y1="264.4" x2="234.1" y2="267.1" stroke="#CCCCCC" stroke-width="0.3"/>
  <line x1="285.0" y1="264.4" x2="285.0" y2="267.1" stroke="#CCCCCC" stroke-width="0.3"/>
  <line x1="335.9" y1="264.4" x2="335.9" y2="267.1" stroke="#CCCCCC" stroke-width="0.3"/>
  <line x1="386.8" y1="264.4" x2="386.8" y2="267.1" stroke="#CCCCCC" stroke-width="0.3"/>
  <rect x="444.5" y="85.8" width="23.8" height="183.3" fill="none" stroke="#000000" stroke-width="2.5"/>
  <rect x="468.3" y="85.8" width="6.8" height="183.3" fill="#F0F0F0" stroke="#000000" stroke-width="2.5"/>
  <line x1="123.8" y1="253.9" x2="140.7" y2="270.8" stroke="#000000" stroke-width="0.75"/>
  <text x="144.7" y="249.9" text-anchor="start" font-family="Arial, Helvetica, sans-serif" font-size="7" fill="#666666" font-weight="600">MITER</text>
  <line x1="429.3" y1="253.9" x2="446.2" y2="270.8" stroke="#000000" stroke-width="0.75"/>
  <text x="450.2" y="249.9" text-anchor="start" font-family="Arial, Helvetica, sans-serif" font-size="7" fill="#666666" font-weight="600">MITER</text>
  <circle cx="113.6" cy="177.5" r="7.7" fill="white" stroke="#000000" stroke-width="0.75"/>
  <text x="113.6" y="181.3" text-anchor="middle" font-family="Arial, Helvetica, sans-serif" font-size="11" fill="#000000" font-weight="bold">C1</text>
  <circle cx="151.3" cy="250.5" r="7.7" fill="white" stroke="#000000" stroke-width="0.75"/>
  <text x="151.3" y="254.3" text-anchor="middle" font-family="Arial, Helvetica, sans-serif" font-size="11" fill="#000000" font-weight="bold">C2</text>
  <circle cx="189.5" cy="250.5" r="7.7" fill="white" stroke="#000000" stroke-width="0.75"/>
  <text x="189.5" y="254.3" text-anchor="middle" font-family="Arial, Helvetica, sans-serif" font-size="11" fill="#000000" font-weight="bold">C3</text>
  <circle cx="227.7" cy="250.5" r="7.7" fill="white" stroke="#000000" stroke-width="0.75"/>
  <text x="227.7" y="254.3" text-anchor="middle" font-family="Arial, Helvetica, sans-serif" font-size="11" fill="#000000" font-weight="bold">C4</text>
  <circle cx="265.9" cy="250.5" r="7.7" fill="white" stroke="#000000" stroke-width="0.75"/>
  <text x="265.9" y="254.3" text-anchor="middle" font-family="Arial, Helvetica, sans-serif" font-size="11" fill="#000000" font-weight="bold">C5</text>
  <circle cx="304.1" cy="250.5" r="7.7" fill="white" stroke="#000000" stroke-width="0.75"/>
  <text x="304.1" y="254.3" text-anchor="middle" font-family="Arial, Helvetica, sans-serif" font-size="11" fill="#000000" font-weight="bold">C6</text>
  <circle cx="342.3" cy="250.5" r="7.7" fill="white" stroke="#000000" stroke-width="0.75"/>
  <text x="342.3" y="254.3" text-anchor="middle" font-family="Arial, Helvetica, sans-serif" font-size="11" fill="#000000" font-weight="bold">C7</text>
  <circle cx="380.5" cy="250.5" r="7.7" fill="white" stroke="#000000" stroke-width="0.75"/>
  <text x="380.5" y="254.3" text-anchor="middle" font-family="Arial, Helvetica, sans-serif" font-size="11" fill="#000000" font-weight="bold">C8</text>
  <circle cx="418.7" cy="250.5" r="7.7" fill="white" stroke="#000000" stroke-width="0.75"/>
  <text x="418.7" y="254.3" text-anchor="middle" font-family="Arial, Helvetica, sans-serif" font-size="11" fill="#000000" font-weight="bold">C9</text>
  <circle cx="456.4" cy="177.5" r="7.7" fill="white" stroke="#000000" stroke-width="0.75"/>
  <text x="456.4" y="181.3" text-anchor="middle" font-family="Arial, Helvetica, sans-serif" font-size="11" fill="#000000" font-weight="bold">C10</text>
  <line x1="101.7" y1="276.1" x2="101.7" y2="296.1" stroke="#333333" stroke-width="0.5"/>
  <line x1="468.3" y1="276.1" x2="468.3" y2="296.1" stroke="#333333" stroke-width="0.5"/>
  <line x1="101.7" y1="291.1" x2="468.3" y2="291.1" stroke="#333333" stroke-width="0.75" marker-start="url(#dim-arrow)" marker-end="url(#dim-arrow)"/>
  <text x="285.0" y="303.1" text-anchor="middle" font-family="Arial, Helvetica, sans-serif" font-size="9" fill="#333333" font-weight="600">216&quot;</text>
  <line x1="87.9" y1="85.8" x2="67.9" y2="85.8" stroke="#333333" stroke-width="0.5"/>
  <line x1="87.9" y1="269.1" x2="67.9" y2="269.1" stroke="#333333" stroke-width="0.5"/>
  <line x1="72.9" y1="85.8" x2="72.9" y2="269.1" stroke="#333333" stroke-width="0.75" marker-start="url(#dim-arrow)" marker-end="url(#dim-arrow)"/>
  <text x="62.9" y="181.5" text-anchor="end" font-family="Arial, Helvetica, sans-serif" font-size="9" fill="#333333" font-weight="600">108&quot;</text>
  <line x1="132.2" y1="78.8" x2="132.2" y2="58.8" stroke="#333333" stroke-width="0.5"/>
  <line x1="437.8" y1="78.8" x2="437.8" y2="58.8" stroke="#333333" stroke-width="0.5"/>
  <line x1="132.2" y1="63.8" x2="437.8" y2="63.8" stroke="#333333" stroke-width="0.75" marker-start="url(#dim-arrow)" marker-end="url(#dim-arrow)"/>
  <text x="285.0" y="59.8" text-anchor="middle" font-family="Arial, Helvetica, sans-serif" font-size="9" fill="#333333" font-weight="600">180&quot;</text>
  </g>
  <rect x="612.0" y="18.0" width="570.0" height="395.0" fill="none" stroke="#666666" stroke-width="0.5"/>
  <text x="897.0" y="32.0" text-anchor="middle" font-family="Arial, Helvetica, sans-serif" font-size="10" fill="#000000" font-weight="bold">ISOMETRIC VIEW</text>
  <g transform="translate(622,38)">
  <polygon points="208.3,340.0 230.6,327.2 230.6,301.5 208.3,314.3" fill="none" stroke="#000000" stroke-width="2.5" stroke-linejoin="round"/>
  <polygon points="208.3,314.3 230.6,301.5 102.2,227.4 80.0,240.2" fill="none" stroke="#000000" stroke-width="1.5" stroke-linejoin="round"/>
  <polygon points="230.6,327.2 102.2,253.1 102.2,227.4 230.6,301.5" fill="none" stroke="#000000" stroke-width="1.5" stroke-linejoin="round"/>
  <polygon points="80.0,240.2 102.2,227.4 102.2,178.9 80.0,191.8" fill="none" stroke="#000000" stroke-width="2.5" stroke-linejoin="round"/>
  <polygon points="80.0,191.8 102.2,178.9 97.3,176.1 75.0,188.9" fill="none" stroke="#000000" stroke-width="1.5" stroke-linejoin="round"/>
  <polygon points="102.2,227.4 97.3,224.6 97.3,176.1 102.2,178.9" fill="none" stroke="#000000" stroke-width="1.5" stroke-linejoin="round"/>
  <line x1="80.0" y1="240.2" x2="102.2" y2="227.4" stroke="#000000" stroke-width="1.0"/>
  <line x1="83.7" y1="236.7" x2="83.7" y2="191.1" stroke="#000000" stroke-width="0.3"/>
  <line x1="87.4" y1="234.5" x2="87.4" y2="188.9" stroke="#000000" stroke-width="0.3"/>
  <line x1="91.1" y1="232.4" x2="91.1" y2="186.8" stroke="#000000" stroke-width="0.3"/>
  <line x1="94.8" y1="230.3" x2="94.8" y2="184.6" stroke="#000000" stroke-width="0.3"/>
  <line x1="98.5" y1="228.1" x2="98.5" y2="182.5" stroke="#000000" stroke-width="0.3"/>
  <polygon points="119.5,263.0 341.7,134.8 341.7,109.1 119.5,237.4" fill="none" stroke="#000000" stroke-width="2.5" stroke-linejoin="round"/>
  <polygon points="119.5,237.4 341.7,109.1 324.4,99.1 102.2,227.4" fill="none" stroke="#000000" stroke-width="1.5" stroke-linejoin="round"/>
  <polygon points="341.7,134.8 324.4,124.8 324.4,99.1 341.7,109.1" fill="none" stroke="#000000" stroke-width="1.5" stroke-linejoin="round"/>
  <polygon points="102.2,227.4 324.4,99.1 324.4,50.7 102.2,178.9" fill="none" stroke="#000000" stroke-width="2.5" stroke-linejoin="round"/>
  <polygon points="102.2,178.9 324.4,50.7 319.4,47.8 97.3,176.1" fill="none" stroke="#000000" stroke-width="1.5" stroke-linejoin="round"/>
  <polygon points="324.4,99.1 319.4,96.3 319.4,47.8 324.4,50.7" fill="none" stroke="#000000" stroke-width="1.5" stroke-linejoin="round"/>
  <line x1="102.2" y1="227.4" x2="324.4" y2="99.1" stroke="#000000" stroke-width="1.0"/>
  <line x1="139.2" y1="204.6" x2="139.2" y2="159.0" stroke="#000000" stroke-width="0.3"/>
  <line x1="176.3" y1="183.2" x2="176.3" y2="137.6" stroke="#000000" stroke-width="0.3"/>
  <line x1="213.3" y1="161.8" x2="213.3" y2="116.2" stroke="#000000" stroke-width="0.3"/>
  <line x1="250.3" y1="140.5" x2="250.3" y2="94.9" stroke="#000000" stroke-width="0.3"/>
  <line x1="287.3" y1="119.1" x2="287.3" y2="73.5" stroke="#000000" stroke-width="0.3"/>
  <polygon points="452.7,198.9 475.0,186.1 475.0,160.4 452.7,173.2" fill="none" stroke="#000000" stroke-width="2.5" stroke-linejoin="round"/>
  <polygon points="452.7,173.2 475.0,160.4 346.6,86.3 324.4,99.1" fill="none" stroke="#000000" stroke-width="1.5" stroke-linejoin="round"/>
  <polygon points="475.0,186.1 346.6,112.0 346.6,86.3 475.0,160.4" fill="none" stroke="#000000" stroke-width="1.5" stroke-linejoin="round"/>
  <polygon points="324.4,99.1 346.6,86.3 346.6,37.9 324.4,50.7" fill="none" stroke="#000000" stroke-width="2.5" stroke-linejoin="round"/>
  <polygon points="324.4,50.7 346.6,37.9 341.7,35.0 319.4,47.8" fill="none" stroke="#000000" stroke-width="1.5" stroke-linejoin="round"/>
  <polygon points="346.6,86.3 341.7,83.5 341.7,35.0 346.6,37.9" fill="none" stroke="#000000" stroke-width="1.5" stroke-linejoin="round"/>
  <line x1="324.4" y1="99.1" x2="346.6" y2="86.3" stroke="#000000" stroke-width="1.0"/>
  <line x1="328.1" y1="95.6" x2="328.1" y2="50.0" stroke="#000000" stroke-width="0.3"/>
  <line x1="331.8" y1="93.4" x2="331.8" y2="47.8" stroke="#000000" stroke-width="0.3"/>
  <line x1="335.5" y1="91.3" x2="335.5" y2="45.7" stroke="#000000" stroke-width="0.3"/>
  <line x1="339.2" y1="89.2" x2="339.2" y2="43.6" stroke="#000000" stroke-width="0.3"/>
  <line x1="342.9" y1="87.0" x2="342.9" y2="41.4" stroke="#000000" stroke-width="0.3"/>
  <line x1="123.2" y1="179.5" x2="123.2" y2="155.5" stroke="#333333" stroke-width="0.5"/>
  <line x1="345.4" y1="51.2" x2="345.4" y2="27.2" stroke="#333333" stroke-width="0.5"/>
  <line x1="123.2" y1="160.5" x2="345.4" y2="32.2" stroke="#333333" stroke-width="0.75" marker-start="url(#dim-arrow)" marker-end="url(#dim-arrow)"/>
  <text x="234.3" y="92.4" text-anchor="middle" font-family="Arial, Helvetica, sans-serif" font-size="9" fill="#333333" font-weight="600">180&quot;</text>
  <line x1="200.9" y1="351.6" x2="200.9" y2="375.6" stroke="#333333" stroke-width="0.5"/>
  <line x1="67.6" y1="274.6" x2="67.6" y2="298.6" stroke="#333333" stroke-width="0.5"/>
  <line x1="200.9" y1="370.6" x2="67.6" y2="293.6" stroke="#333333" stroke-width="0.75" marker-start="url(#dim-arrow)" marker-end="url(#dim-arrow)"/>
  <text x="134.3" y="344.1" text-anchor="middle" font-family="Arial, Helvetica, sans-serif" font-size="9" fill="#333333" font-weight="600">108&quot;</text>
  <line x1="201.6" y1="320.8" x2="181.6" y2="320.8" stroke="#333333" stroke-width="0.5"/>
  <line x1="201.6" y1="272.3" x2="181.6" y2="272.3" stroke="#333333" stroke-width="0.5"/>
  <line x1="186.6" y1="320.8" x2="186.6" y2="272.3" stroke="#333333" stroke-width="0.75" marker-start="url(#dim-arrow)" marker-end="url(#dim-arrow)"/>
  <text x="176.6" y="300.5" text-anchor="end" font-family="Arial, Helvetica, sans-serif" font-size="9" fill="#333333" font-weight="600">34&quot; BH</text>
  <line x1="489.1" y1="183.9" x2="509.1" y2="183.9" stroke="#333333" stroke-width="0.5"/>
  <line x1="489.1" y1="158.3" x2="509.1" y2="158.3" stroke="#333333" stroke-width="0.5"/>
  <line x1="504.1" y1="183.9" x2="504.1" y2="158.3" stroke="#333333" stroke-width="0.75" marker-start="url(#dim-arrow)" marker-end="url(#dim-arrow)"/>
  <text x="514.1" y="175.1" text-anchor="start" font-family="Arial, Helvetica, sans-serif" font-size="9" fill="#333333" font-weight="600">18&quot; SH</text>
  <line x1="479.9" y1="190.5" x2="479.9" y2="214.5" stroke="#333333" stroke-width="0.5"/>
  <line x1="346.6" y1="113.5" x2="346.6" y2="137.5" stroke="#333333" stroke-width="0.5"/>
  <line x1="479.9" y1="209.5" x2="346.6" y2="132.5" stroke="#333333" stroke-width="0.75" marker-start="url(#dim-arrow)" marker-end="url(#dim-arrow)"/>
  <text x="413.2" y="183.0" text-anchor="middle" font-family="Arial, Helvetica, sans-serif" font-size="9" fill="#333333" font-weight="600">108&quot;</text>
  <line x1="112.1" y1="274.6" x2="112.1" y2="298.6" stroke="#333333" stroke-width="0.5"/>
  <line x1="89.9" y1="261.8" x2="89.9" y2="285.8" stroke="#333333" stroke-width="0.5"/>
  <line x1="112.1" y1="293.6" x2="89.9" y2="280.8" stroke="#333333" stroke-width="0.75" marker-start="url(#dim-arrow)" marker-end="url(#dim-arrow)"/>
  <text x="101.0" y="299.2" text-anchor="middle" font-family="Arial, Helvetica, sans-serif" font-size="9" fill="#333333" font-weight="600">18&quot;</text>
  <line x1="212.1" y1="353.7" x2="212.1" y2="377.7" stroke="#333333" stroke-width="0.5"/>
  <line x1="234.3" y1="340.9" x2="234.3" y2="364.9" stroke="#333333" stroke-width="0.5"/>
  <line x1="212.1" y1="372.7" x2="234.3" y2="359.9" stroke="#333333" stroke-width="0.75" marker-start="url(#dim-arrow)" marker-end="url(#dim-arrow)"/>
  <text x="223.2" y="378.3" text-anchor="middle" font-family="Arial, Helvetica, sans-serif" font-size="9" fill="#333333" font-weight="600">18&quot;</text>
  <line x1="456.4" y1="212.6" x2="456.4" y2="236.6" stroke="#333333" stroke-width="0.5"/>
  <line x1="478.7" y1="199.8" x2="478.7" y2="223.8" stroke="#333333" stroke-width="0.5"/>
  <line x1="456.4" y1="231.6" x2="478.7" y2="218.8" stroke="#333333" stroke-width="0.75" marker-start="url(#dim-arrow)" marker-end="url(#dim-arrow)"/>
  <text x="467.5" y="237.2" text-anchor="middle" font-family="Arial, Helvetica, sans-serif" font-size="9" fill="#333333" font-weight="600">18&quot;</text>
  </g>
  <rect x="18.0" y="437.0" width="570.0" height="395.0" fill="none" stroke="#666666" stroke-width="0.5"/>
  <text x="303.0" y="451.0" text-anchor="middle" font-family="Arial, Helvetica, sans-serif" font-size="10" fill="#000000" font-weight="bold">FRONT ELEVATION</text>
  <g transform="translate(18,457)">
  <line x1="86.7" y1="221.6" x2="483.3" y2="221.6" stroke="#666666" stroke-width="1.0" stroke-dasharray="6,3"/>
  <text x="83.7" y="225.6" text-anchor="end" font-family="Arial, Helvetica, sans-serif" font-size="7" fill="#666666" font-weight="normal">FL</text>
  <rect x="101.7" y="191.1" width="366.6" height="30.6" fill="none" stroke="#000000" stroke-width="2.5"/>
  <rect x="101.7" y="133.4" width="366.6" height="57.7" fill="none" stroke="#000000" stroke-width="1.5"/>
  <line x1="162.8" y1="135.4" x2="162.8" y2="189.1" stroke="#CCCCCC" stroke-width="0.3"/>
  <line x1="223.9" y1="135.4" x2="223.9" y2="189.1" stroke="#CCCCCC" stroke-width="0.3"/>
  <line x1="285.0" y1="135.4" x2="285.0" y2="189.1" stroke="#CCCCCC" stroke-width="0.3"/>
  <line x1="346.1" y1="135.4" x2="346.1" y2="189.1" stroke="#CCCCCC" stroke-width="0.3"/>
  <line x1="407.2" y1="135.4" x2="407.2" y2="189.1" stroke="#CCCCCC" stroke-width="0.3"/>
  <line x1="101.7" y1="191.1" x2="468.3" y2="191.1" stroke="#000000" stroke-width="1.5"/>
  <line x1="101.7" y1="224.6" x2="101.7" y2="244.6" stroke="#333333" stroke-width="0.5"/>
  <line x1="468.3" y1="224.6" x2="468.3" y2="244.6" stroke="#333333" stroke-width="0.5"/>
  <line x1="101.7" y1="239.6" x2="468.3" y2="239.6" stroke="#333333" stroke-width="0.75" marker-start="url(#dim-arrow)" marker-end="url(#dim-arrow)"/>
  <text x="285.0" y="251.6" text-anchor="middle" font-family="Arial, Helvetica, sans-serif" font-size="9" fill="#333333" font-weight="600">216&quot;</text>
  <line x1="471.3" y1="221.6" x2="495.3" y2="221.6" stroke="#333333" stroke-width="0.5"/>
  <line x1="471.3" y1="191.1" x2="495.3" y2="191.1" stroke="#333333" stroke-width="0.5"/>
  <line x1="490.3" y1="221.6" x2="490.3" y2="191.1" stroke="#333333" stroke-width="0.75" marker-start="url(#dim-arrow)" marker-end="url(#dim-arrow)"/>
  <text x="500.3" y="210.4" text-anchor="start" font-family="Arial, Helvetica, sans-serif" font-size="9" fill="#333333" font-weight="600">18&quot; SH</text>
  <line x1="511.3" y1="191.1" x2="535.3" y2="191.1" stroke="#333333" stroke-width="0.5"/>
  <line x1="511.3" y1="133.4" x2="535.3" y2="133.4" stroke="#333333" stroke-width="0.5"/>
  <line x1="530.3" y1="191.1" x2="530.3" y2="133.4" stroke="#333333" stroke-width="0.75" marker-start="url(#dim-arrow)" marker-end="url(#dim-arrow)"/>
  <text x="540.3" y="166.2" text-anchor="start" font-family="Arial, Helvetica, sans-serif" font-size="9" fill="#333333" font-weight="600">34&quot; BH</text>
  <line x1="94.7" y1="221.6" x2="68.7" y2="221.6" stroke="#333333" stroke-width="0.5"/>
  <line x1="94.7" y1="133.4" x2="68.7" y2="133.4" stroke="#333333" stroke-width="0.5"/>
  <line x1="73.7" y1="221.6" x2="73.7" y2="133.4" stroke="#333333" stroke-width="0.75" marker-start="url(#dim-arrow)" marker-end="url(#dim-arrow)"/>
  <text x="63.7" y="181.5" text-anchor="end" font-family="Arial, Helvetica, sans-serif" font-size="9" fill="#333333" font-weight="600">52&quot;</text>
  <line x1="132.2" y1="221.6" x2="132.2" y2="133.4" stroke="#666666" stroke-width="1.0"/>
  <line x1="437.8" y1="221.6" x2="437.8" y2="133.4" stroke="#666666" stroke-width="1.0"/>
  </g>
  <rect x="612.0" y="437.0" width="570.0" height="395.0" fill="none" stroke="#000000" stroke-width="2.0"/>
  <rect x="615.0" y="440.0" width="564.0" height="389.0" fill="none" stroke="#000000" stroke-width="0.5"/>
  <text x="897.0" y="465.0" text-anchor="middle" font-family="Arial, Helvetica, sans-serif" font-size="20" fill="#000000" font-weight="bold">EMPIRE WORKROOM</text>
  <text x="897.0" y="481.0" text-anchor="middle" font-family="Arial, Helvetica, sans-serif" font-size="8" fill="#666666" font-weight="normal">CUSTOM UPHOLSTERY &amp; FABRICATION</text>
  <text x="897.0" y="493.0" text-anchor="middle" font-family="Arial, Helvetica, sans-serif" font-size="7" fill="#666666" font-weight="normal">5124 Frolich Ln, Hyattsville, MD 20781</text>
  <text x="897.0" y="503.0" text-anchor="middle" font-family="Arial, Helvetica, sans-serif" font-size="7" fill="#666666" font-weight="normal">(703) 213-6484 | workroom@empirebox.store</text>
  <line x1="627.0" y1="511.0" x2="1167.0" y2="511.0" stroke="#000000" stroke-width="0.5"/>
  <text x="627.0" y="527.0" text-anchor="start" font-family="Arial, Helvetica, sans-serif" font-size="8" fill="#000000" font-weight="bold">ITEM:</text>
  <text x="712.0" y="527.0" text-anchor="start" font-family="Arial, Helvetica, sans-serif" font-size="8" fill="#000000" font-weight="normal">U-SHAPED BENCH ESTIMATE</text>
  <text x="627.0" y="545.0" text-anchor="start" font-family="Arial, Helvetica, sans-serif" font-size="8" fill="#000000" font-weight="bold">TYPE:</text>
  <text x="712.0" y="545.0" text-anchor="start" font-family="Arial, Helvetica, sans-serif" font-size="8" fill="#000000" font-weight="normal">U SHAPE</text>
  <text x="627.0" y="563.0" text-anchor="start" font-family="Arial, Helvetica, sans-serif" font-size="8" fill="#000000" font-weight="bold">DIMENSIONS:</text>
  <text x="712.0" y="563.0" text-anchor="start" font-family="Arial, Helvetica, sans-serif" font-size="8" fill="#000000" font-weight="normal">180&quot; B × 108&quot; S × 18&quot; D × 18&quot; SD × 18&quot; SH × 34&quot; BH</text>
  <text x="627.0" y="581.0" text-anchor="start" font-family="Arial, Helvetica, sans-serif" font-size="8" fill="#000000" font-weight="bold">CUSHIONS:</text>
  <text x="712.0" y="581.0" text-anchor="start" font-family="Arial, Helvetica, sans-serif" font-size="8" fill="#000000" font-weight="normal">10 @ 24.0&quot; each</text>
  <text x="627.0" y="599.0" text-anchor="start" font-family="Arial, Helvetica, sans-serif" font-size="8" fill="#000000" font-weight="bold">BACK STYLE:</text>
  <text x="712.0" y="599.0" text-anchor="start" font-family="Arial, Helvetica, sans-serif" font-size="8" fill="#000000" font-weight="normal">CHANNELED BACK</text>
  <text x="627.0" y="617.0" text-anchor="start" font-family="Arial, Helvetica, sans-serif" font-size="8" fill="#000000" font-weight="bold">CLIENT:</text>
  <text x="712.0" y="617.0" text-anchor="start" font-family="Arial, Helvetica, sans-serif" font-size="8" fill="#000000" font-weight="normal">NEW PROJECT</text>
  <text x="627.0" y="635.0" text-anchor="start" font-family="Arial, Helvetica, sans-serif" font-size="8" fill="#000000" font-weight="bold">PROJECT:</text>
  <text x="712.0" y="635.0" text-anchor="start" font-family="Arial, Helvetica, sans-serif" font-size="8" fill="#000000" font-weight="normal">BENCH SEATING</text>
  <text x="627.0" y="653.0" text-anchor="start" font-family="Arial, Helvetica, sans-serif" font-size="8" fill="#000000" font-weight="bold">DATE:</text>
  <text x="712.0" y="653.0" text-anchor="start" font-family="Arial, Helvetica, sans-serif" font-size="8" fill="#000000" font-weight="normal">04/04/2026</text>
  <text x="627.0" y="671.0" text-anchor="start" font-family="Arial, Helvetica, sans-serif" font-size="8" fill="#000000" font-weight="bold">DRAWN BY:</text>
  <text x="712.0" y="671.0" text-anchor="start" font-family="Arial, Helvetica, sans-serif" font-size="8" fill="#000000" font-weight="normal">MAX AI / Empire Workroom</text>
  <text x="897.0" y="784.0" text-anchor="middle" font-family="Arial, Helvetica, sans-serif" font-size="7" fill="#000000" font-weight="bold">SCALE REFERENCE</text>
  <rect x="637.0" y="790.0" width="130.0" height="7.0" fill="#000" stroke="#000000" stroke-width="0.5"/>
  <rect x="767.0" y="790.0" width="130.0" height="7.0" fill="#FFF" stroke="#000000" stroke-width="0.5"/>
  <rect x="897.0" y="790.0" width="130.0" height="7.0" fill="#000" stroke="#000000" stroke-width="0.5"/>
  <rect x="1027.0" y="790.0" width="130.0" height="7.0" fill="#FFF" stroke="#000000" stroke-width="0.5"/>
  <text x="637.0" y="807.0" text-anchor="middle" font-family="Arial, Helvetica, sans-serif" font-size="6" fill="#000000" font-weight="normal">0&quot;</text>
  <text x="767.0" y="807.0" text-anchor="middle" font-family="Arial, Helvetica, sans-serif" font-size="6" fill="#000000" font-weight="normal">12&quot;</text>
  <text x="897.0" y="807.0" text-anchor="middle" font-family="Arial, Helvetica, sans-serif" font-size="6" fill="#000000" font-weight="normal">24&quot;</text>
  <text x="1027.0" y="807.0" text-anchor="middle" font-family="Arial, Helvetica, sans-serif" font-size="6" fill="#000000" font-weight="normal">36&quot;</text>
  <text x="1157.0" y="807.0" text-anchor="middle" font-family="Arial, Helvetica, sans-serif" font-size="6" fill="#000000" font-weight="normal">48&quot;</text>
</svg>