<svg xmlns="http://www.w3.org/2000/svg" viewBox="0 0 1200 850" width="1200" height="850">
  <defs>
  <marker id="dim-arrow" viewBox="0 0 10 6" refX="10" refY="3"
          markerWidth="8" markerHeight="6" orient="auto-start-reverse">
    <path d="M0,0 L10,3 L0,6 Z" fill="#000"/>
  </marker>
</defs>
  <rect width="1200" height="850" fill="white"/>
  <rect x="4.0" y="4.0" width="1192.0" height="842.0" fill="none" stroke="#000000" stroke-width="2.0"/>
  <rect x="8.0" y="8.0" width="1184.0" height="834.0" fill="none" stroke="#000000" stroke-width="0.5"/>
  <rect x="18.0" y="18.0" width="570.0" height="395.0" fill="none" stroke="#666666" stroke-width="0.5"/>
  <text x="303.0" y="32.0" text-anchor="middle" font-family="Arial, Helvetica, sans-serif" font-size="10" fill="#000000" font-weight="bold">PLAN VIEW</text>
  <g transform="translate(18,38)">
  <rect x="101.7" y="85.8" width="366.6" height="35.6" fill="none" stroke="#000000" stroke-width="2.5"/>
  <rect x="101.7" y="121.5" width="366.6" height="10.2" fill="#F0F0F0" stroke="#000000" stroke-width="2.5"/>
  <line x1="162.8" y1="123.5" x2="162.8" y2="129.7" stroke="#CCCCCC" stroke-width="0.3"/>
  <line x1="223.9" y1="123.5" x2="223.9" y2="129.7" stroke="#CCCCCC" stroke-width="0.3"/>
  <line x1="285.0" y1="123.5" x2="285.0" y2="129.7" stroke="#CCCCCC" stroke-width="0.3"/>
  <line x1="346.1" y1="123.5" x2="346.1" y2="129.7" stroke="#CCCCCC" stroke-width="0.3"/>
  <line x1="407.2" y1="123.5" x2="407.2" y2="129.7" stroke="#CCCCCC" stroke-width="0.3"/>
  <rect x="432.7" y="131.7" width="35.6" height="137.5" fill="none" stroke="#000000" stroke-width="2.5"/>
  <rect x="468.3" y="131.7" width="10.2" height="137.5" fill="#F0F0F0" stroke="#000000" stroke-width="2.5"/>
  <line x1="424.2" y1="123.2" x2="441.1" y2="140.2" stroke="#000000" stroke-width="0.75"/>
  <text x="445.1" y="119.2" text-anchor="start" font-family="Arial, Helvetica, sans-serif" font-size="7" fill="#666666" font-weight="600">MITER</text>
  <circle cx="132.2" cy="103.7" r="7.7" fill="white" stroke="#000000" stroke-width="0.75"/>
  <text x="132.2" y="107.5" text-anchor="middle" font-family="Arial, Helvetica, sans-serif" font-size="11" fill="#000000" font-weight="bold">C1</text>
  <circle cx="193.4" cy="103.7" r="7.7" fill="white" stroke="#000000" stroke-width="0.75"/>
  <text x="193.4" y="107.5" text-anchor="middle" font-family="Arial, Helvetica, sans-serif" font-size="11" fill="#000000" font-weight="bold">C2</text>
  <circle cx="254.4" cy="103.7" r="7.7" fill="white" stroke="#000000" stroke-width="0.75"/>
  <text x="254.4" y="107.5" text-anchor="middle" font-family="Arial, Helvetica, sans-serif" font-size="11" fill="#000000" font-weight="bold">C3</text>
  <circle cx="315.6" cy="103.7" r="7.7" fill="white" stroke="#000000" stroke-width="0.75"/>
  <text x="315.6" y="107.5" text-anchor="middle" font-family="Arial, Helvetica, sans-serif" font-size="11" fill="#000000" font-weight="bold">C4</text>
  <circle cx="376.6" cy="103.7" r="7.7" fill="white" stroke="#000000" stroke-width="0.75"/>
  <text x="376.6" y="107.5" text-anchor="middle" font-family="Arial, Helvetica, sans-serif" font-size="11" fill="#000000" font-weight="bold">C5</text>
  <circle cx="437.8" cy="103.7" r="7.7" fill="white" stroke="#000000" stroke-width="0.75"/>
  <text x="437.8" y="107.5" text-anchor="middle" font-family="Arial, Helvetica, sans-serif" font-size="11" fill="#000000" font-weight="bold">C6</text>
  <circle cx="450.5" cy="200.4" r="7.7" fill="white" stroke="#000000" stroke-width="0.75"/>
  <text x="450.5" y="204.3" text-anchor="middle" font-family="Arial, Helvetica, sans-serif" font-size="11" fill="#000000" font-weight="bold">C7</text>
  <line x1="101.7" y1="78.8" x2="101.7" y2="58.8" stroke="#333333" stroke-width="0.5"/>
  <line x1="468.3" y1="78.8" x2="468.3" y2="58.8" stroke="#333333" stroke-width="0.5"/>
  <line x1="101.7" y1="63.8" x2="468.3" y2="63.8" stroke="#333333" stroke-width="0.75" marker-start="url(#dim-arrow)" marker-end="url(#dim-arrow)"/>
  <text x="285.0" y="59.8" text-anchor="middle" font-family="Arial, Helvetica, sans-serif" font-size="9" fill="#333333" font-weight="600">144&quot;</text>
  <line x1="485.5" y1="85.8" x2="505.5" y2="85.8" stroke="#333333" stroke-width="0.5"/>
  <line x1="485.5" y1="269.2" x2="505.5" y2="269.2" stroke="#333333" stroke-width="0.5"/>
  <line x1="500.5" y1="85.8" x2="500.5" y2="269.2" stroke="#333333" stroke-width="0.75" marker-start="url(#dim-arrow)" marker-end="url(#dim-arrow)"/>
  <text x="510.5" y="181.5" text-anchor="start" font-family="Arial, Helvetica, sans-serif" font-size="9" fill="#333333" font-weight="600">72&quot;</text>
  <line x1="94.7" y1="85.8" x2="74.7" y2="85.8" stroke="#333333" stroke-width="0.5"/>
  <line x1="94.7" y1="131.7" x2="74.7" y2="131.7" stroke="#333333" stroke-width="0.5"/>
  <line x1="79.7" y1="85.8" x2="79.7" y2="131.7" stroke="#333333" stroke-width="0.75" marker-start="url(#dim-arrow)" marker-end="url(#dim-arrow)"/>
  <text x="69.7" y="112.8" text-anchor="end" font-family="Arial, Helvetica, sans-serif" font-size="9" fill="#333333" font-weight="600">18&quot;</text>
  </g>
  <rect x="612.0" y="18.0" width="570.0" height="395.0" fill="none" stroke="#666666" stroke-width="0.5"/>
  <text x="897.0" y="32.0" text-anchor="middle" font-family="Arial, Helvetica, sans-serif" font-size="10" fill="#000000" font-weight="bold">ISOMETRIC VIEW</text>
  <g transform="translate(622,38)">
  <polygon points="126.4,288.5 364.1,151.3 364.1,117.0 126.4,254.2" fill="none" stroke="#000000" stroke-width="2.5" stroke-linejoin="round"/>
  <polygon points="126.4,254.2 364.1,117.0 341.0,103.6 103.3,240.9" fill="none" stroke="#000000" stroke-width="1.5" stroke-linejoin="round"/>
  <polygon points="364.1,151.3 341.0,137.9 341.0,103.6 364.1,117.0" fill="none" stroke="#000000" stroke-width="1.5" stroke-linejoin="round"/>
  <polygon points="103.3,240.9 341.0,103.6 341.0,38.8 103.3,176.1" fill="none" stroke="#000000" stroke-width="2.5" stroke-linejoin="round"/>
  <polygon points="103.3,176.1 341.0,38.8 334.4,35.0 96.7,172.2" fill="none" stroke="#000000" stroke-width="1.5" stroke-linejoin="round"/>
  <polygon points="341.0,103.6 334.4,99.8 334.4,35.0 341.0,38.8" fill="none" stroke="#000000" stroke-width="1.5" stroke-linejoin="round"/>
  <line x1="103.3" y1="240.9" x2="341.0" y2="103.6" stroke="#000000" stroke-width="1.0"/>
  <line x1="142.9" y1="216.1" x2="142.9" y2="155.1" stroke="#000000" stroke-width="0.3"/>
  <line x1="182.6" y1="193.2" x2="182.6" y2="132.2" stroke="#000000" stroke-width="0.3"/>
  <line x1="222.2" y1="170.3" x2="222.2" y2="109.3" stroke="#000000" stroke-width="0.3"/>
  <line x1="261.8" y1="147.5" x2="261.8" y2="86.5" stroke="#000000" stroke-width="0.3"/>
  <line x1="301.4" y1="124.6" x2="301.4" y2="63.6" stroke="#000000" stroke-width="0.3"/>
  <polygon points="423.6,219.9 453.3,202.8 453.3,168.4 423.6,185.6" fill="none" stroke="#000000" stroke-width="2.5" stroke-linejoin="round"/>
  <polygon points="423.6,185.6 453.3,168.4 341.0,103.6 311.3,120.8" fill="none" stroke="#000000" stroke-width="1.5" stroke-linejoin="round"/>
  <polygon points="453.3,202.8 341.0,137.9 341.0,103.6 453.3,168.4" fill="none" stroke="#000000" stroke-width="1.5" stroke-linejoin="round"/>
  <polygon points="311.3,120.8 341.0,103.6 341.0,38.8 311.3,56.0" fill="none" stroke="#000000" stroke-width="2.5" stroke-linejoin="round"/>
  <polygon points="311.3,56.0 341.0,38.8 334.4,35.0 304.7,52.2" fill="none" stroke="#000000" stroke-width="1.5" stroke-linejoin="round"/>
  <polygon points="341.0,103.6 334.4,99.8 334.4,35.0 341.0,38.8" fill="none" stroke="#000000" stroke-width="1.5" stroke-linejoin="round"/>
  <line x1="311.3" y1="120.8" x2="341.0" y2="103.6" stroke="#000000" stroke-width="1.0"/>
  <line x1="316.3" y1="116.0" x2="316.3" y2="55.0" stroke="#000000" stroke-width="0.3"/>
  <line x1="321.2" y1="113.2" x2="321.2" y2="52.2" stroke="#000000" stroke-width="0.3"/>
  <line x1="326.2" y1="110.3" x2="326.2" y2="49.3" stroke="#000000" stroke-width="0.3"/>
  <line x1="331.1" y1="107.4" x2="331.1" y2="46.4" stroke="#000000" stroke-width="0.3"/>
  <line x1="336.1" y1="104.6" x2="336.1" y2="43.6" stroke="#000000" stroke-width="0.3"/>
  <line x1="131.4" y1="177.8" x2="131.4" y2="153.8" stroke="#333333" stroke-width="0.5"/>
  <line x1="369.1" y1="40.6" x2="369.1" y2="16.6" stroke="#333333" stroke-width="0.5"/>
  <line x1="131.4" y1="158.8" x2="369.1" y2="21.6" stroke="#333333" stroke-width="0.75" marker-start="url(#dim-arrow)" marker-end="url(#dim-arrow)"/>
  <text x="250.2" y="86.2" text-anchor="middle" font-family="Arial, Helvetica, sans-serif" font-size="9" fill="#333333" font-weight="600">144&quot;</text>
  <line x1="459.9" y1="207.7" x2="459.9" y2="231.7" stroke="#333333" stroke-width="0.5"/>
  <line x1="341.0" y1="139.0" x2="341.0" y2="163.0" stroke="#333333" stroke-width="0.5"/>
  <line x1="459.9" y1="226.7" x2="341.0" y2="158.0" stroke="#333333" stroke-width="0.75" marker-start="url(#dim-arrow)" marker-end="url(#dim-arrow)"/>
  <text x="400.5" y="204.3" text-anchor="middle" font-family="Arial, Helvetica, sans-serif" font-size="9" fill="#333333" font-weight="600">72&quot;</text>
  <line x1="397.2" y1="140.9" x2="397.2" y2="164.9" stroke="#333333" stroke-width="0.5"/>
  <line x1="367.4" y1="123.8" x2="367.4" y2="147.8" stroke="#333333" stroke-width="0.5"/>
  <line x1="397.2" y1="159.9" x2="367.4" y2="142.8" stroke="#333333" stroke-width="0.75" marker-start="url(#dim-arrow)" marker-end="url(#dim-arrow)"/>
  <text x="382.3" y="163.4" text-anchor="middle" font-family="Arial, Helvetica, sans-serif" font-size="9" fill="#333333" font-weight="600">18&quot;</text>
  <line x1="471.2" y1="165.6" x2="491.2" y2="165.6" stroke="#333333" stroke-width="0.5"/>
  <line x1="471.2" y1="100.8" x2="491.2" y2="100.8" stroke="#333333" stroke-width="0.5"/>
  <line x1="486.2" y1="165.6" x2="486.2" y2="100.8" stroke="#333333" stroke-width="0.75" marker-start="url(#dim-arrow)" marker-end="url(#dim-arrow)"/>
  <text x="496.2" y="137.2" text-anchor="start" font-family="Arial, Helvetica, sans-serif" font-size="9" fill="#333333" font-weight="600">34&quot; BH</text>
  <line x1="352.3" y1="131.3" x2="372.3" y2="131.3" stroke="#333333" stroke-width="0.5"/>
  <line x1="352.3" y1="97.0" x2="372.3" y2="97.0" stroke="#333333" stroke-width="0.5"/>
  <line x1="367.3" y1="131.3" x2="367.3" y2="97.0" stroke="#333333" stroke-width="0.75" marker-start="url(#dim-arrow)" marker-end="url(#dim-arrow)"/>
  <text x="377.3" y="118.1" text-anchor="start" font-family="Arial, Helvetica, sans-serif" font-size="9" fill="#333333" font-weight="600">18&quot; SH</text>
  </g>
  <rect x="18.0" y="437.0" width="570.0" height="395.0" fill="none" stroke="#666666" stroke-width="0.5"/>
  <text x="303.0" y="451.0" text-anchor="middle" font-family="Arial, Helvetica, sans-serif" font-size="10" fill="#000000" font-weight="bold">FRONT ELEVATION</text>
  <g transform="translate(18,457)">
  <line x1="86.7" y1="243.7" x2="483.3" y2="243.7" stroke="#666666" stroke-width="1.0" stroke-dasharray="6,3"/>
  <text x="83.7" y="247.7" text-anchor="end" font-family="Arial, Helvetica, sans-serif" font-size="7" fill="#666666" font-weight="normal">FL</text>
  <rect x="101.7" y="197.9" width="366.6" height="45.8" fill="none" stroke="#000000" stroke-width="2.5"/>
  <rect x="101.7" y="111.3" width="366.6" height="86.6" fill="none" stroke="#000000" stroke-width="1.5"/>
  <line x1="162.8" y1="113.3" x2="162.8" y2="195.9" stroke="#CCCCCC" stroke-width="0.3"/>
  <line x1="223.9" y1="113.3" x2="223.9" y2="195.9" stroke="#CCCCCC" stroke-width="0.3"/>
  <line x1="285.0" y1="113.3" x2="285.0" y2="195.9" stroke="#CCCCCC" stroke-width="0.3"/>
  <line x1="346.1" y1="113.3" x2="346.1" y2="195.9" stroke="#CCCCCC" stroke-width="0.3"/>
  <line x1="407.2" y1="113.3" x2="407.2" y2="195.9" stroke="#CCCCCC" stroke-width="0.3"/>
  <line x1="101.7" y1="197.9" x2="468.3" y2="197.9" stroke="#000000" stroke-width="1.5"/>
  <line x1="101.7" y1="246.7" x2="101.7" y2="266.7" stroke="#333333" stroke-width="0.5"/>
  <line x1="468.3" y1="246.7" x2="468.3" y2="266.7" stroke="#333333" stroke-width="0.5"/>
  <line x1="101.7" y1="261.7" x2="468.3" y2="261.7" stroke="#333333" stroke-width="0.75" marker-start="url(#dim-arrow)" marker-end="url(#dim-arrow)"/>
  <text x="285.0" y="273.7" text-anchor="middle" font-family="Arial, Helvetica, sans-serif" font-size="9" fill="#333333" font-weight="600">144&quot;</text>
  <line x1="471.3" y1="243.7" x2="495.3" y2="243.7" stroke="#333333" stroke-width="0.5"/>
  <line x1="471.3" y1="197.9" x2="495.3" y2="197.9" stroke="#333333" stroke-width="0.5"/>
  <line x1="490.3" y1="243.7" x2="490.3" y2="197.9" stroke="#333333" stroke-width="0.75" marker-start="url(#dim-arrow)" marker-end="url(#dim-arrow)"/>
  <text x="500.3" y="224.8" text-anchor="start" font-family="Arial, Helvetica, sans-serif" font-size="9" fill="#333333" font-weight="600">18&quot; SH</text>
  <line x1="511.3" y1="197.9" x2="535.3" y2="197.9" stroke="#333333" stroke-width="0.5"/>
  <line x1="511.3" y1="111.3" x2="535.3" y2="111.3" stroke="#333333" stroke-width="0.5"/>
  <line x1="530.3" y1="197.9" x2="530.3" y2="111.3" stroke="#333333" stroke-width="0.75" marker-start="url(#dim-arrow)" marker-end="url(#dim-arrow)"/>
  <text x="540.3" y="158.6" text-anchor="start" font-family="Arial, Helvetica, sans-serif" font-size="9" fill="#333333" font-weight="600">34&quot; BH</text>
  <line x1="94.7" y1="243.7" x2="68.7" y2="243.7" stroke="#333333" stroke-width="0.5"/>
  <line x1="94.7" y1="111.3" x2="68.7" y2="111.3" stroke="#333333" stroke-width="0.5"/>
  <line x1="73.7" y1="243.7" x2="73.7" y2="111.3" stroke="#333333" stroke-width="0.75" marker-start="url(#dim-arrow)" marker-end="url(#dim-arrow)"/>
  <text x="63.7" y="181.5" text-anchor="end" font-family="Arial, Helvetica, sans-serif" font-size="9" fill="#333333" font-weight="600">52&quot;</text>
  </g>
  <rect x="612.0" y="437.0" width="570.0" height="395.0" fill="none" stroke="#000000" stroke-width="2.0"/>
  <rect x="615.0" y="440.0" width="564.0" height="389.0" fill="none" stroke="#000000" stroke-width="0.5"/>
  <text x="897.0" y="465.0" text-anchor="middle" font-family="Arial, Helvetica, sans-serif" font-size="20" fill="#000000" font-weight="bold">EMPIRE WORKROOM</text>
  <text x="897.0" y="481.0" text-anchor="middle" font-family="Arial, Helvetica, sans-serif" font-size="8" fill="#666666" font-weight="normal">CUSTOM UPHOLSTERY &amp; FABRICATION</text>
  <text x="897.0" y="493.0" text-anchor="middle" font-family="Arial, Helvetica, sans-serif" font-size="7" fill="#666666" font-weight="normal">5124 Frolich Ln, Hyattsville, MD 20781</text>
  <text x="897.0" y="503.0" text-anchor="middle" font-family="Arial, Helvetica, sans-serif" font-size="7" fill="#666666" font-weight="normal">(703) 213-6484 | workroom@empirebox.store</text>
  <line x1="627.0" y1="511.0" x2="1167.0" y2="511.0" stroke="#000000" stroke-width="0.5"/>
  <text x="627.0" y="527.0" text-anchor="start" font-family="Arial, Helvetica, sans-serif" font-size="8" fill="#000000" font-weight="bold">ITEM:</text>
  <text x="712.0" y="527.0" text-anchor="start" font-family="Arial, Helvetica, sans-serif" font-size="8" fill="#000000" font-weight="normal">L-SHAPED BENCH ESTIMATE</text>
  <text x="627.0" y="545.0" text-anchor="start" font-family="Arial, Helvetica, sans-serif" font-size="8" fill="#000000" font-weight="bold">TYPE:</text>
  <text x="712.0" y="545.0" text-anchor="start" font-family="Arial, Helvetica, sans-serif" font-size="8" fill="#000000" font-weight="normal">L SHAPE</text>
  <text x="627.0" y="563.0" text-anchor="start" font-family="Arial, Helvetica, sans-serif" font-size="8" fill="#000000" font-weight="bold">DIMENSIONS:</text>
  <text x="712.0" y="563.0" text-anchor="start" font-family="Arial, Helvetica, sans-serif" font-size="8" fill="#000000" font-weight="normal">144&quot; L × 72&quot; S × 18&quot; D × 18&quot; SH × 34&quot; BH</text>
  <text x="627.0" y="581.0" text-anchor="start" font-family="Arial, Helvetica, sans-serif" font-size="8" fill="#000000" font-weight="bold">CUSHIONS:</text>
  <text x="712.0" y="581.0" text-anchor="start" font-family="Arial, Helvetica, sans-serif" font-size="8" fill="#000000" font-weight="normal">6 @ 24.0&quot; each</text>
  <text x="627.0" y="599.0" text-anchor="start" font-family="Arial, Helvetica, sans-serif" font-size="8" fill="#000000" font-weight="bold">BACK STYLE:</text>
  <text x="712.0" y="599.0" text-anchor="start" font-family="Arial, Helvetica, sans-serif" font-size="8" fill="#000000" font-weight="normal">CHANNELED BACK</text>
  <text x="627.0" y="617.0" text-anchor="start" font-family="Arial, Helvetica, sans-serif" font-size="8" fill="#000000" font-weight="bold">CLIENT:</text>
  <text x="712.0" y="617.0" text-anchor="start" font-family="Arial, Helvetica, sans-serif" font-size="8" fill="#000000" font-weight="normal">NEW PROJECT</text>
  <text x="627.0" y="635.0" text-anchor="start" font-family="Arial, Helvetica, sans-serif" font-size="8" fill="#000000" font-weight="bold">PROJECT:</text>
  <text x="712.0" y="635.0" text-anchor="start" font-family="Arial, Helvetica, sans-serif" font-size="8" fill="#000000" font-weight="normal">BENCH SEATING</text>
  <text x="627.0" y="653.0" text-anchor="start" font-family="Arial, Helvetica, sans-serif" font-size="8" fill="#000000" font-weight="bold">DATE:</text>
  <text x="712.0" y="653.0" text-anchor="start" font-family="Arial, Helvetica, sans-serif" font-size="8" fill="#000000" font-weight="normal">04/04/2026</text>
  <text x="627.0" y="671.0" text-anchor="start" font-family="Arial, Helvetica, sans-serif" font-size="8" fill="#000000" font-weight="bold">DRAWN BY:</text>
  <text x="712.0" y="671.0" text-anchor="start" font-family="Arial, Helvetica, sans-serif" font-size="8" fill="#000000" font-weight="normal">MAX AI / Empire Workroom</text>
  <text x="897.0" y="784.0" text-anchor="middle" font-family="Arial, Helvetica, sans-serif" font-size="7" fill="#000000" font-weight="bold">SCALE REFERENCE</text>
  <rect x="637.0" y="790.0" width="130.0" height="7.0" fill="#000" stroke="#000000" stroke-width="0.5"/>
  <rect x="767.0" y="790.0" width="130.0" height="7.0" fill="#FFF" stroke="#000000" stroke-width="0.5"/>
  <rect x="897.0" y="790.0" width="130.0" height="7.0" fill="#000" stroke="#000000" stroke-width="0.5"/>
  <rect x="1027.0" y="790.0" width="130.0" height="7.0" fill="#FFF" stroke="#000000" stroke-width="0.5"/>
  <text x="637.0" y="807.0" text-anchor="middle" font-family="Arial, Helvetica, sans-serif" font-size="6" fill="#000000" font-weight="normal">0&quot;</text>
  <text x="767.0" y="807.0" text-anchor="middle" font-family="Arial, Helvetica, sans-serif" font-size="6" fill="#000000" font-weight="normal">12&quot;</text>
  <text x="897.0" y="807.0" text-anchor="middle" font-family="Arial, Helvetica, sans-serif" font-size="6" fill="#000000" font-weight="normal">24&quot;</text>
  <text x="1027.0" y="807.0" text-anchor="middle" font-family="Arial, Helvetica, sans-serif" font-size="6" fill="#000000" font-weight="normal">36&quot;</text>
  <text x="1157.0" y="807.0" text-anchor="middle" font-family="Arial, Helvetica, sans-serif" font-size="6" fill="#000000" font-weight="normal">48&quot;</text>
</svg>