<svg xmlns="http://www.w3.org/2000/svg" viewBox="0 0 200 200">
  <!-- Track -->
  <rect x="10" y="18" width="180" height="4" rx="1" fill="none" stroke="#333" stroke-width="1.5"/>
  <!-- Carriers/snaps on track -->
  <circle cx="25" cy="20" r="2" fill="#333"/>
  <circle cx="45" cy="20" r="2" fill="#333"/>
  <circle cx="65" cy="20" r="2" fill="#333"/>
  <circle cx="85" cy="20" r="2" fill="#333"/>
  <circle cx="105" cy="20" r="2" fill="#333"/>
  <circle cx="125" cy="20" r="2" fill="#333"/>
  <circle cx="145" cy="20" r="2" fill="#333"/>
  <circle cx="165" cy="20" r="2" fill="#333"/>
  <!-- Ripplefold waves -->
  <path d="M20,22 Q25,22 30,30 Q35,45 40,30 Q45,22 50,22 Q55,22 60,30 Q65,45 70,30 Q75,22 80,22 Q85,22 90,30 Q95,45 100,30 Q105,22 110,22 Q115,22 120,30 Q125,45 130,30 Q135,22 140,22 Q145,22 150,30 Q155,45 160,30 Q165,22 170,22" fill="none" stroke="#333" stroke-width="1" stroke-dasharray="none"/>
  <!-- Fabric panels with wave pattern continuing down -->
  <path d="M20,22 Q25,22 30,30 L30,185 L20,185 Z" fill="#f5f0e8" stroke="#333" stroke-width="1.5"/>
  <path d="M30,30 Q35,45 40,30 L50,22 L50,185 L30,185 Z" fill="#f5f0e8" stroke="#333" stroke-width="1"/>
  <path d="M50,22 Q55,22 60,30 L60,185 L50,185 Z" fill="#f5f0e8" stroke="#333" stroke-width="1.5"/>
  <path d="M60,30 Q65,45 70,30 L80,22 L80,185 L60,185 Z" fill="#f5f0e8" stroke="#333" stroke-width="1"/>
  <path d="M80,22 Q85,22 90,30 L90,185 L80,185 Z" fill="#f5f0e8" stroke="#333" stroke-width="1.5"/>
  <path d="M90,30 Q95,45 100,30 L110,22 L110,185 L90,185 Z" fill="#f5f0e8" stroke="#333" stroke-width="1"/>
  <path d="M110,22 Q115,22 120,30 L120,185 L110,185 Z" fill="#f5f0e8" stroke="#333" stroke-width="1.5"/>
  <path d="M120,30 Q125,45 130,30 L140,22 L140,185 L120,185 Z" fill="#f5f0e8" stroke="#333" stroke-width="1"/>
  <path d="M140,22 Q145,22 150,30 L150,185 L140,185 Z" fill="#f5f0e8" stroke="#333" stroke-width="1.5"/>
  <path d="M150,30 Q155,45 160,30 L170,22 L170,185 L150,185 Z" fill="#f5f0e8" stroke="#333" stroke-width="1"/>
  <!-- Floor line -->
  <line x1="15" y1="188" x2="185" y2="188" stroke="#333" stroke-width="0.5" stroke-dasharray="4,4"/>
</svg>
