<svg xmlns="http://www.w3.org/2000/svg" viewBox="0 0 200 200">
  <!-- Rod -->
  <line x1="10" y1="20" x2="190" y2="20" stroke="#333" stroke-width="2.5"/>
  <!-- Rod finials -->
  <circle cx="10" cy="20" r="5" fill="none" stroke="#333" stroke-width="1.5"/>
  <circle cx="190" cy="20" r="5" fill="none" stroke="#333" stroke-width="1.5"/>
  <!-- Grommets (rings at top) -->
  <circle cx="28" cy="28" r="5" fill="none" stroke="#333" stroke-width="1.5"/>
  <circle cx="48" cy="28" r="5" fill="none" stroke="#333" stroke-width="1.5"/>
  <circle cx="68" cy="28" r="5" fill="none" stroke="#333" stroke-width="1.5"/>
  <circle cx="88" cy="28" r="5" fill="none" stroke="#333" stroke-width="1.5"/>
  <circle cx="112" cy="28" r="5" fill="none" stroke="#333" stroke-width="1.5"/>
  <circle cx="132" cy="28" r="5" fill="none" stroke="#333" stroke-width="1.5"/>
  <circle cx="152" cy="28" r="5" fill="none" stroke="#333" stroke-width="1.5"/>
  <circle cx="172" cy="28" r="5" fill="none" stroke="#333" stroke-width="1.5"/>
  <!-- Fabric folds hanging from grommets -->
  <path d="M28,33 Q30,80 28,185 L38,185 Q42,80 48,33" fill="#f5f0e8" stroke="#333" stroke-width="1.5"/>
  <path d="M48,33 Q46,80 48,185 L58,185 Q62,80 68,33" fill="#f5f0e8" stroke="#333" stroke-width="1"/>
  <path d="M68,33 Q70,80 68,185 L78,185 Q82,80 88,33" fill="#f5f0e8" stroke="#333" stroke-width="1.5"/>
  <path d="M88,33 Q86,80 88,185 L102,185 Q106,80 112,33" fill="#f5f0e8" stroke="#333" stroke-width="1"/>
  <path d="M112,33 Q114,80 112,185 L122,185 Q126,80 132,33" fill="#f5f0e8" stroke="#333" stroke-width="1.5"/>
  <path d="M132,33 Q130,80 132,185 L142,185 Q146,80 152,33" fill="#f5f0e8" stroke="#333" stroke-width="1"/>
  <path d="M152,33 Q154,80 152,185 L162,185 Q166,80 172,33" fill="#f5f0e8" stroke="#333" stroke-width="1.5"/>
  <!-- Floor line -->
  <line x1="15" y1="188" x2="185" y2="188" stroke="#333" stroke-width="0.5" stroke-dasharray="4,4"/>
</svg>
